{
	"loadmessage": "# loaded music.json",
	"description": "# music.json - converted notes generated from midi file: bach_bourree.mid",
	"keys":"[c] command, [n] midi-note, [d] delta-time, [f] frequency, [v] velocity",
	"info":"converted using midi2json by superpanic, https://github.com/superpanic",
	"tracks":[
		{
			"track number":1,
			"notes":[

			]
		},
		{
			"track number":2,
			"notes":[
				{"c":"Program Change", "n":0, "d":2880, "f":8.175799, "v":0},
				{"c":"Controller", "n":121, "d":0, "f":8869.845703, "v":0},
				{"c":"Controller", "n":64, "d":0, "f":329.627625, "v":0},
				{"c":"Controller", "n":91, "d":0, "f":1567.982056, "v":48},
				{"c":"Controller", "n":10, "d":0, "f":14.567619, "v":51},
				{"c":"Controller", "n":7, "d":0, "f":12.249859, "v":100},
				{"c":"Note ON", "n":69, "d":0, "f":440.000092, "v":67},
				{"c":"Controller", "n":121, "d":0, "f":8869.845703, "v":0},
				{"c":"Controller", "n":64, "d":0, "f":329.627625, "v":0},
				{"c":"Controller", "n":91, "d":0, "f":1567.982056, "v":48},
				{"c":"Controller", "n":10, "d":0, "f":14.567619, "v":51},
				{"c":"Controller", "n":7, "d":0, "f":12.249859, "v":100},
				{"c":"Note ON", "n":48, "d":0, "f":130.812805, "v":68},
				{"c":"Note OFF", "n":69, "d":480, "f":440.000092, "v":0},
				{"c":"Note ON", "n":71, "d":0, "f":493.883392, "v":81},
				{"c":"Note OFF", "n":48, "d":0, "f":130.812805, "v":0},
				{"c":"Note ON", "n":47, "d":0, "f":123.470848, "v":75},
				{"c":"Note OFF", "n":71, "d":480, "f":493.883392, "v":0},
				{"c":"Note ON", "n":72, "d":0, "f":523.251221, "v":84},
				{"c":"Note OFF", "n":47, "d":0, "f":123.470848, "v":0},
				{"c":"Note ON", "n":45, "d":0, "f":110.000023, "v":70},
				{"c":"Note OFF", "n":72, "d":960, "f":523.251221, "v":0},
				{"c":"Note ON", "n":71, "d":0, "f":493.883392, "v":72},
				{"c":"Note OFF", "n":45, "d":0, "f":110.000023, "v":0},
				{"c":"Note ON", "n":50, "d":0, "f":146.832413, "v":78},
				{"c":"Note OFF", "n":71, "d":480, "f":493.883392, "v":0},
				{"c":"Note ON", "n":69, "d":0, "f":440.000092, "v":69},
				{"c":"Note OFF", "n":69, "d":480, "f":440.000092, "v":0},
				{"c":"Note ON", "n":68, "d":0, "f":415.304779, "v":75},
				{"c":"Note OFF", "n":50, "d":0, "f":146.832413, "v":0},
				{"c":"Note ON", "n":52, "d":0, "f":164.813812, "v":81},
				{"c":"Note OFF", "n":68, "d":960, "f":415.304779, "v":0},
				{"c":"Note ON", "n":69, "d":0, "f":440.000092, "v":78},
				{"c":"Note OFF", "n":52, "d":0, "f":164.813812, "v":0},
				{"c":"Note ON", "n":50, "d":0, "f":146.832413, "v":70},
				{"c":"Note OFF", "n":69, "d":480, "f":440.000092, "v":0},
				{"c":"Note ON", "n":71, "d":0, "f":493.883392, "v":81},
				{"c":"Note OFF", "n":71, "d":480, "f":493.883392, "v":0},
				{"c":"Note ON", "n":64, "d":0, "f":329.627625, "v":66},
				{"c":"Note OFF", "n":50, "d":0, "f":146.832413, "v":0},
				{"c":"Note ON", "n":48, "d":0, "f":130.812805, "v":77},
				{"c":"Note OFF", "n":64, "d":960, "f":329.627625, "v":0},
				{"c":"Note ON", "n":66, "d":0, "f":369.994507, "v":80},
				{"c":"Note OFF", "n":48, "d":0, "f":130.812805, "v":0},
				{"c":"Note ON", "n":47, "d":0, "f":123.470848, "v":72},
				{"c":"Note OFF", "n":66, "d":480, "f":369.994507, "v":0},
				{"c":"Note ON", "n":68, "d":0, "f":415.304779, "v":82},
				{"c":"Note OFF", "n":68, "d":480, "f":415.304779, "v":0},
				{"c":"Note ON", "n":69, "d":0, "f":440.000092, "v":78},
				{"c":"Note OFF", "n":47, "d":0, "f":123.470848, "v":0},
				{"c":"Note ON", "n":45, "d":0, "f":110.000023, "v":74},
				{"c":"Note OFF", "n":69, "d":960, "f":440.000092, "v":0},
				{"c":"Note ON", "n":67, "d":0, "f":391.995514, "v":70},
				{"c":"Note OFF", "n":45, "d":0, "f":110.000023, "v":0},
				{"c":"Note ON", "n":47, "d":0, "f":123.470848, "v":81},
				{"c":"Note OFF", "n":67, "d":480, "f":391.995514, "v":0},
				{"c":"Note ON", "n":65, "d":0, "f":349.228302, "v":73},
				{"c":"Note OFF", "n":65, "d":480, "f":349.228302, "v":0},
				{"c":"Note ON", "n":64, "d":0, "f":329.627625, "v":68},
				{"c":"Note OFF", "n":47, "d":0, "f":123.470848, "v":0},
				{"c":"Note ON", "n":48, "d":0, "f":130.812805, "v":78},
				{"c":"Note OFF", "n":64, "d":960, "f":329.627625, "v":0},
				{"c":"Note ON", "n":62, "d":0, "f":293.664825, "v":70},
				{"c":"Note OFF", "n":48, "d":0, "f":130.812805, "v":0},
				{"c":"Note ON", "n":50, "d":0, "f":146.832413, "v":80},
				{"c":"Note OFF", "n":62, "d":480, "f":293.664825, "v":0},
				{"c":"Note ON", "n":60, "d":0, "f":261.625610, "v":69},
				{"c":"Note OFF", "n":60, "d":480, "f":261.625610, "v":0},
				{"c":"Note ON", "n":59, "d":0, "f":246.941696, "v":70},
				{"c":"Note OFF", "n":50, "d":0, "f":146.832413, "v":0},
				{"c":"Note ON", "n":52, "d":0, "f":164.813812, "v":76},
				{"c":"Note OFF", "n":59, "d":960, "f":246.941696, "v":0},
				{"c":"Note ON", "n":60, "d":0, "f":261.625610, "v":81},
				{"c":"Note OFF", "n":52, "d":0, "f":164.813812, "v":0},
				{"c":"Note ON", "n":50, "d":0, "f":146.832413, "v":74},
				{"c":"Note OFF", "n":60, "d":480, "f":261.625610, "v":0},
				{"c":"Note ON", "n":62, "d":0, "f":293.664825, "v":82},
				{"c":"Note OFF", "n":62, "d":480, "f":293.664825, "v":0},
				{"c":"Note ON", "n":64, "d":0, "f":329.627625, "v":85},
				{"c":"Note OFF", "n":50, "d":0, "f":146.832413, "v":0},
				{"c":"Note ON", "n":48, "d":0, "f":130.812805, "v":75},
				{"c":"Note OFF", "n":64, "d":480, "f":329.627625, "v":0},
				{"c":"Note ON", "n":62, "d":0, "f":293.664825, "v":72},
				{"c":"Note OFF", "n":62, "d":480, "f":293.664825, "v":0},
				{"c":"Note ON", "n":60, "d":0, "f":261.625610, "v":73},
				{"c":"Note OFF", "n":48, "d":0, "f":130.812805, "v":0},
				{"c":"Note ON", "n":52, "d":0, "f":164.813812, "v":77},
				{"c":"Note OFF", "n":60, "d":480, "f":261.625610, "v":0},
				{"c":"Note ON", "n":59, "d":0, "f":246.941696, "v":72},
				{"c":"Note OFF", "n":59, "d":480, "f":246.941696, "v":0},
				{"c":"Note ON", "n":57, "d":0, "f":220.000046, "v":76},
				{"c":"Note OFF", "n":52, "d":0, "f":164.813812, "v":0},
				{"c":"Note ON", "n":45, "d":0, "f":110.000023, "v":69},
				{"c":"Note OFF", "n":45, "d":480, "f":110.000023, "v":0},
				{"c":"Note ON", "n":47, "d":0, "f":123.470848, "v":76},
				{"c":"Note OFF", "n":57, "d":480, "f":220.000046, "v":0},
				{"c":"Note ON", "n":69, "d":0, "f":440.000092, "v":97},
				{"c":"Note OFF", "n":47, "d":0, "f":123.470848, "v":0},
				{"c":"Note ON", "n":48, "d":0, "f":130.812805, "v":77},
				{"c":"Note OFF", "n":69, "d":480, "f":440.000092, "v":0},
				{"c":"Note ON", "n":71, "d":0, "f":493.883392, "v":86},
				{"c":"Note OFF", "n":48, "d":0, "f":130.812805, "v":0},
				{"c":"Note ON", "n":47, "d":0, "f":123.470848, "v":77},
				{"c":"Note OFF", "n":71, "d":480, "f":493.883392, "v":0},
				{"c":"Note ON", "n":72, "d":0, "f":523.251221, "v":81},
				{"c":"Note OFF", "n":47, "d":0, "f":123.470848, "v":0},
				{"c":"Note ON", "n":45, "d":0, "f":110.000023, "v":72},
				{"c":"Note OFF", "n":72, "d":960, "f":523.251221, "v":0},
				{"c":"Note ON", "n":71, "d":0, "f":493.883392, "v":75},
				{"c":"Note OFF", "n":45, "d":0, "f":110.000023, "v":0},
				{"c":"Note ON", "n":50, "d":0, "f":146.832413, "v":78},
				{"c":"Note OFF", "n":71, "d":480, "f":493.883392, "v":0},
				{"c":"Note ON", "n":69, "d":0, "f":440.000092, "v":69},
				{"c":"Note OFF", "n":69, "d":480, "f":440.000092, "v":0},
				{"c":"Note ON", "n":68, "d":0, "f":415.304779, "v":70},
				{"c":"Note OFF", "n":50, "d":0, "f":146.832413, "v":0},
				{"c":"Note ON", "n":52, "d":0, "f":164.813812, "v":78},
				{"c":"Note OFF", "n":68, "d":960, "f":415.304779, "v":0},
				{"c":"Note ON", "n":69, "d":0, "f":440.000092, "v":79},
				{"c":"Note OFF", "n":52, "d":0, "f":164.813812, "v":0},
				{"c":"Note ON", "n":50, "d":0, "f":146.832413, "v":72},
				{"c":"Note OFF", "n":69, "d":480, "f":440.000092, "v":0},
				{"c":"Note ON", "n":71, "d":0, "f":493.883392, "v":79},
				{"c":"Note OFF", "n":71, "d":480, "f":493.883392, "v":0},
				{"c":"Note ON", "n":64, "d":0, "f":329.627625, "v":63},
				{"c":"Note OFF", "n":50, "d":0, "f":146.832413, "v":0},
				{"c":"Note ON", "n":48, "d":0, "f":130.812805, "v":75},
				{"c":"Note OFF", "n":64, "d":960, "f":329.627625, "v":0},
				{"c":"Note ON", "n":66, "d":0, "f":369.994507, "v":80},
				{"c":"Note OFF", "n":48, "d":0, "f":130.812805, "v":0},
				{"c":"Note ON", "n":47, "d":0, "f":123.470848, "v":73},
				{"c":"Note OFF", "n":66, "d":480, "f":369.994507, "v":0},
				{"c":"Note ON", "n":68, "d":0, "f":415.304779, "v":81},
				{"c":"Note OFF", "n":68, "d":480, "f":415.304779, "v":0},
				{"c":"Note ON", "n":69, "d":0, "f":440.000092, "v":80},
				{"c":"Note OFF", "n":47, "d":0, "f":123.470848, "v":0},
				{"c":"Note ON", "n":45, "d":0, "f":110.000023, "v":78},
				{"c":"Note OFF", "n":69, "d":960, "f":440.000092, "v":0},
				{"c":"Note ON", "n":67, "d":0, "f":391.995514, "v":72},
				{"c":"Note OFF", "n":45, "d":0, "f":110.000023, "v":0},
				{"c":"Note ON", "n":47, "d":0, "f":123.470848, "v":80},
				{"c":"Note OFF", "n":67, "d":480, "f":391.995514, "v":0},
				{"c":"Note ON", "n":65, "d":0, "f":349.228302, "v":70},
				{"c":"Note OFF", "n":65, "d":480, "f":349.228302, "v":0},
				{"c":"Note ON", "n":64, "d":0, "f":329.627625, "v":70},
				{"c":"Note OFF", "n":47, "d":0, "f":123.470848, "v":0},
				{"c":"Note ON", "n":48, "d":0, "f":130.812805, "v":82},
				{"c":"Note OFF", "n":64, "d":960, "f":329.627625, "v":0},
				{"c":"Note ON", "n":62, "d":0, "f":293.664825, "v":73},
				{"c":"Note OFF", "n":48, "d":0, "f":130.812805, "v":0},
				{"c":"Note ON", "n":53, "d":0, "f":174.614151, "v":82},
				{"c":"Note OFF", "n":62, "d":480, "f":293.664825, "v":0},
				{"c":"Note ON", "n":60, "d":0, "f":261.625610, "v":71},
				{"c":"Note OFF", "n":60, "d":480, "f":261.625610, "v":0},
				{"c":"Note ON", "n":59, "d":0, "f":246.941696, "v":73},
				{"c":"Note OFF", "n":53, "d":0, "f":174.614151, "v":0},
				{"c":"Note ON", "n":55, "d":0, "f":195.997757, "v":80},
				{"c":"Note OFF", "n":59, "d":150, "f":246.941696, "v":0},
				{"c":"Note ON", "n":60, "d":30, "f":261.625610, "v":73},
				{"c":"Note OFF", "n":60, "d":143, "f":261.625610, "v":0},
				{"c":"Note ON", "n":59, "d":30, "f":246.941696, "v":73},
				{"c":"Note OFF", "n":59, "d":135, "f":246.941696, "v":0},
				{"c":"Note ON", "n":60, "d":30, "f":261.625610, "v":73},
				{"c":"Note OFF", "n":60, "d":131, "f":261.625610, "v":0},
				{"c":"Note ON", "n":59, "d":26, "f":246.941696, "v":73},
				{"c":"Note OFF", "n":59, "d":124, "f":246.941696, "v":0},
				{"c":"Note ON", "n":60, "d":34, "f":261.625610, "v":73},
				{"c":"Note OFF", "n":60, "d":123, "f":261.625610, "v":0},
				{"c":"Note OFF", "n":55, "d":4, "f":195.997757, "v":0},
				{"c":"Note ON", "n":43, "d":0, "f":97.998878, "v":70},
				{"c":"Note ON", "n":59, "d":38, "f":246.941696, "v":73},
				{"c":"Note OFF", "n":59, "d":131, "f":246.941696, "v":0},
				{"c":"Note ON", "n":60, "d":41, "f":261.625610, "v":73},
				{"c":"Note OFF", "n":60, "d":135, "f":261.625610, "v":0},
				{"c":"Note ON", "n":59, "d":45, "f":246.941696, "v":73},
				{"c":"Note OFF", "n":59, "d":86, "f":246.941696, "v":0},
				{"c":"Note ON", "n":60, "d":4, "f":261.625610, "v":78},
				{"c":"Note OFF", "n":60, "d":480, "f":261.625610, "v":0},
				{"c":"Note ON", "n":60, "d":0, "f":261.625610, "v":76},
				{"c":"Note OFF", "n":43, "d":0, "f":97.998878, "v":0},
				{"c":"Note ON", "n":48, "d":0, "f":130.812805, "v":75},
				{"c":"Note OFF", "n":60, "d":2880, "f":261.625610, "v":0},
				{"c":"Note ON", "n":69, "d":0, "f":440.000092, "v":92},
				{"c":"Note OFF", "n":48, "d":0, "f":130.812805, "v":0},
				{"c":"Note ON", "n":48, "d":0, "f":130.812805, "v":73},
				{"c":"Note OFF", "n":69, "d":480, "f":440.000092, "v":0},
				{"c":"Note ON", "n":71, "d":0, "f":493.883392, "v":88},
				{"c":"Note OFF", "n":48, "d":0, "f":130.812805, "v":0},
				{"c":"Note ON", "n":47, "d":0, "f":123.470848, "v":77},
				{"c":"Note OFF", "n":71, "d":480, "f":493.883392, "v":0},
				{"c":"Note ON", "n":72, "d":0, "f":523.251221, "v":81},
				{"c":"Note OFF", "n":47, "d":0, "f":123.470848, "v":0},
				{"c":"Note ON", "n":45, "d":0, "f":110.000023, "v":73},
				{"c":"Note OFF", "n":72, "d":960, "f":523.251221, "v":0},
				{"c":"Note ON", "n":71, "d":0, "f":493.883392, "v":74},
				{"c":"Note OFF", "n":45, "d":0, "f":110.000023, "v":0},
				{"c":"Note ON", "n":50, "d":0, "f":146.832413, "v":85},
				{"c":"Note OFF", "n":71, "d":480, "f":493.883392, "v":0},
				{"c":"Note ON", "n":69, "d":0, "f":440.000092, "v":69},
				{"c":"Note OFF", "n":69, "d":480, "f":440.000092, "v":0},
				{"c":"Note ON", "n":68, "d":0, "f":415.304779, "v":73},
				{"c":"Note OFF", "n":50, "d":0, "f":146.832413, "v":0},
				{"c":"Note ON", "n":52, "d":0, "f":164.813812, "v":83},
				{"c":"Note OFF", "n":68, "d":960, "f":415.304779, "v":0},
				{"c":"Note ON", "n":69, "d":0, "f":440.000092, "v":74},
				{"c":"Note OFF", "n":52, "d":0, "f":164.813812, "v":0},
				{"c":"Note ON", "n":50, "d":0, "f":146.832413, "v":76},
				{"c":"Note OFF", "n":69, "d":480, "f":440.000092, "v":0},
				{"c":"Note ON", "n":71, "d":0, "f":493.883392, "v":86},
				{"c":"Note OFF", "n":71, "d":480, "f":493.883392, "v":0},
				{"c":"Note ON", "n":64, "d":0, "f":329.627625, "v":65},
				{"c":"Note OFF", "n":50, "d":0, "f":146.832413, "v":0},
				{"c":"Note ON", "n":48, "d":0, "f":130.812805, "v":75},
				{"c":"Note OFF", "n":64, "d":960, "f":329.627625, "v":0},
				{"c":"Note ON", "n":66, "d":0, "f":369.994507, "v":78},
				{"c":"Note OFF", "n":48, "d":0, "f":130.812805, "v":0},
				{"c":"Note ON", "n":47, "d":0, "f":123.470848, "v":70},
				{"c":"Note OFF", "n":66, "d":480, "f":369.994507, "v":0},
				{"c":"Note ON", "n":68, "d":0, "f":415.304779, "v":80},
				{"c":"Note OFF", "n":68, "d":480, "f":415.304779, "v":0},
				{"c":"Note ON", "n":69, "d":0, "f":440.000092, "v":80},
				{"c":"Note OFF", "n":47, "d":0, "f":123.470848, "v":0},
				{"c":"Note ON", "n":45, "d":0, "f":110.000023, "v":76},
				{"c":"Note OFF", "n":69, "d":960, "f":440.000092, "v":0},
				{"c":"Note ON", "n":67, "d":0, "f":391.995514, "v":71},
				{"c":"Note OFF", "n":45, "d":0, "f":110.000023, "v":0},
				{"c":"Note ON", "n":47, "d":0, "f":123.470848, "v":77},
				{"c":"Note OFF", "n":67, "d":480, "f":391.995514, "v":0},
				{"c":"Note ON", "n":65, "d":0, "f":349.228302, "v":73},
				{"c":"Note OFF", "n":65, "d":480, "f":349.228302, "v":0},
				{"c":"Note ON", "n":64, "d":0, "f":329.627625, "v":73},
				{"c":"Note OFF", "n":47, "d":0, "f":123.470848, "v":0},
				{"c":"Note ON", "n":48, "d":0, "f":130.812805, "v":77},
				{"c":"Note OFF", "n":64, "d":960, "f":329.627625, "v":0},
				{"c":"Note ON", "n":62, "d":0, "f":293.664825, "v":67},
				{"c":"Note OFF", "n":48, "d":0, "f":130.812805, "v":0},
				{"c":"Note ON", "n":50, "d":0, "f":146.832413, "v":78},
				{"c":"Note OFF", "n":62, "d":480, "f":293.664825, "v":0},
				{"c":"Note ON", "n":60, "d":0, "f":261.625610, "v":71},
				{"c":"Note OFF", "n":60, "d":480, "f":261.625610, "v":0},
				{"c":"Note ON", "n":59, "d":0, "f":246.941696, "v":78},
				{"c":"Note OFF", "n":50, "d":0, "f":146.832413, "v":0},
				{"c":"Note ON", "n":52, "d":0, "f":164.813812, "v":82},
				{"c":"Note OFF", "n":59, "d":960, "f":246.941696, "v":0},
				{"c":"Note ON", "n":60, "d":0, "f":261.625610, "v":80},
				{"c":"Note OFF", "n":52, "d":0, "f":164.813812, "v":0},
				{"c":"Note ON", "n":50, "d":0, "f":146.832413, "v":73},
				{"c":"Note OFF", "n":60, "d":480, "f":261.625610, "v":0},
				{"c":"Note ON", "n":62, "d":0, "f":293.664825, "v":81},
				{"c":"Note OFF", "n":62, "d":480, "f":293.664825, "v":0},
				{"c":"Note ON", "n":64, "d":0, "f":329.627625, "v":82},
				{"c":"Note OFF", "n":50, "d":0, "f":146.832413, "v":0},
				{"c":"Note ON", "n":48, "d":0, "f":130.812805, "v":67},
				{"c":"Note OFF", "n":64, "d":480, "f":329.627625, "v":0},
				{"c":"Note ON", "n":62, "d":0, "f":293.664825, "v":68},
				{"c":"Note OFF", "n":62, "d":480, "f":293.664825, "v":0},
				{"c":"Note ON", "n":60, "d":0, "f":261.625610, "v":72},
				{"c":"Note OFF", "n":48, "d":0, "f":130.812805, "v":0},
				{"c":"Note ON", "n":52, "d":0, "f":164.813812, "v":80},
				{"c":"Note OFF", "n":60, "d":480, "f":261.625610, "v":0},
				{"c":"Note ON", "n":59, "d":0, "f":246.941696, "v":77},
				{"c":"Note OFF", "n":59, "d":480, "f":246.941696, "v":0},
				{"c":"Note ON", "n":57, "d":0, "f":220.000046, "v":68},
				{"c":"Note OFF", "n":52, "d":0, "f":164.813812, "v":0},
				{"c":"Note ON", "n":45, "d":0, "f":110.000023, "v":70},
				{"c":"Note OFF", "n":45, "d":480, "f":110.000023, "v":0},
				{"c":"Note ON", "n":47, "d":0, "f":123.470848, "v":76},
				{"c":"Note OFF", "n":57, "d":480, "f":220.000046, "v":0},
				{"c":"Note ON", "n":69, "d":0, "f":440.000092, "v":97},
				{"c":"Note OFF", "n":47, "d":0, "f":123.470848, "v":0},
				{"c":"Note ON", "n":48, "d":0, "f":130.812805, "v":78},
				{"c":"Note OFF", "n":69, "d":480, "f":440.000092, "v":0},
				{"c":"Note ON", "n":71, "d":0, "f":493.883392, "v":87},
				{"c":"Note OFF", "n":48, "d":0, "f":130.812805, "v":0},
				{"c":"Note ON", "n":47, "d":0, "f":123.470848, "v":79},
				{"c":"Note OFF", "n":71, "d":480, "f":493.883392, "v":0},
				{"c":"Note ON", "n":72, "d":0, "f":523.251221, "v":83},
				{"c":"Note OFF", "n":47, "d":0, "f":123.470848, "v":0},
				{"c":"Note ON", "n":45, "d":0, "f":110.000023, "v":75},
				{"c":"Note OFF", "n":72, "d":960, "f":523.251221, "v":0},
				{"c":"Note ON", "n":71, "d":0, "f":493.883392, "v":71},
				{"c":"Note OFF", "n":45, "d":0, "f":110.000023, "v":0},
				{"c":"Note ON", "n":50, "d":0, "f":146.832413, "v":84},
				{"c":"Note OFF", "n":71, "d":480, "f":493.883392, "v":0},
				{"c":"Note ON", "n":69, "d":0, "f":440.000092, "v":74},
				{"c":"Note OFF", "n":69, "d":480, "f":440.000092, "v":0},
				{"c":"Note ON", "n":68, "d":0, "f":415.304779, "v":73},
				{"c":"Note OFF", "n":50, "d":0, "f":146.832413, "v":0},
				{"c":"Note ON", "n":52, "d":0, "f":164.813812, "v":77},
				{"c":"Note OFF", "n":68, "d":960, "f":415.304779, "v":0},
				{"c":"Note ON", "n":69, "d":0, "f":440.000092, "v":79},
				{"c":"Note OFF", "n":52, "d":0, "f":164.813812, "v":0},
				{"c":"Note ON", "n":50, "d":0, "f":146.832413, "v":73},
				{"c":"Note OFF", "n":69, "d":480, "f":440.000092, "v":0},
				{"c":"Note ON", "n":71, "d":0, "f":493.883392, "v":84},
				{"c":"Note OFF", "n":71, "d":480, "f":493.883392, "v":0},
				{"c":"Note ON", "n":64, "d":0, "f":329.627625, "v":61},
				{"c":"Note OFF", "n":50, "d":0, "f":146.832413, "v":0},
				{"c":"Note ON", "n":48, "d":0, "f":130.812805, "v":76},
				{"c":"Note OFF", "n":64, "d":960, "f":329.627625, "v":0},
				{"c":"Note ON", "n":66, "d":0, "f":369.994507, "v":74},
				{"c":"Note OFF", "n":48, "d":0, "f":130.812805, "v":0},
				{"c":"Note ON", "n":47, "d":0, "f":123.470848, "v":73},
				{"c":"Note OFF", "n":66, "d":480, "f":369.994507, "v":0},
				{"c":"Note ON", "n":68, "d":0, "f":415.304779, "v":79},
				{"c":"Note OFF", "n":68, "d":480, "f":415.304779, "v":0},
				{"c":"Note ON", "n":69, "d":0, "f":440.000092, "v":81},
				{"c":"Note OFF", "n":47, "d":0, "f":123.470848, "v":0},
				{"c":"Note ON", "n":45, "d":0, "f":110.000023, "v":74},
				{"c":"Note OFF", "n":69, "d":960, "f":440.000092, "v":0},
				{"c":"Note ON", "n":67, "d":0, "f":391.995514, "v":75},
				{"c":"Note OFF", "n":45, "d":0, "f":110.000023, "v":0},
				{"c":"Note ON", "n":47, "d":0, "f":123.470848, "v":78},
				{"c":"Note OFF", "n":67, "d":480, "f":391.995514, "v":0},
				{"c":"Note ON", "n":65, "d":0, "f":349.228302, "v":67},
				{"c":"Note OFF", "n":65, "d":480, "f":349.228302, "v":0},
				{"c":"Note ON", "n":64, "d":0, "f":329.627625, "v":72},
				{"c":"Note OFF", "n":47, "d":0, "f":123.470848, "v":0},
				{"c":"Note ON", "n":48, "d":0, "f":130.812805, "v":80},
				{"c":"Note OFF", "n":64, "d":960, "f":329.627625, "v":0},
				{"c":"Note ON", "n":62, "d":0, "f":293.664825, "v":71},
				{"c":"Note OFF", "n":48, "d":0, "f":130.812805, "v":0},
				{"c":"Note ON", "n":53, "d":0, "f":174.614151, "v":82},
				{"c":"Note OFF", "n":62, "d":480, "f":293.664825, "v":0},
				{"c":"Note ON", "n":60, "d":0, "f":261.625610, "v":73},
				{"c":"Note OFF", "n":60, "d":480, "f":261.625610, "v":0},
				{"c":"Note ON", "n":59, "d":0, "f":246.941696, "v":74},
				{"c":"Note OFF", "n":53, "d":0, "f":174.614151, "v":0},
				{"c":"Note ON", "n":55, "d":0, "f":195.997757, "v":77},
				{"c":"Note OFF", "n":59, "d":150, "f":246.941696, "v":0},
				{"c":"Note ON", "n":60, "d":30, "f":261.625610, "v":74},
				{"c":"Note OFF", "n":60, "d":143, "f":261.625610, "v":0},
				{"c":"Note ON", "n":59, "d":30, "f":246.941696, "v":74},
				{"c":"Note OFF", "n":59, "d":135, "f":246.941696, "v":0},
				{"c":"Note ON", "n":60, "d":30, "f":261.625610, "v":74},
				{"c":"Note OFF", "n":60, "d":131, "f":261.625610, "v":0},
				{"c":"Note ON", "n":59, "d":26, "f":246.941696, "v":74},
				{"c":"Note OFF", "n":59, "d":124, "f":246.941696, "v":0},
				{"c":"Note ON", "n":60, "d":34, "f":261.625610, "v":74},
				{"c":"Note OFF", "n":60, "d":123, "f":261.625610, "v":0},
				{"c":"Note OFF", "n":55, "d":4, "f":195.997757, "v":0},
				{"c":"Note ON", "n":43, "d":0, "f":97.998878, "v":70},
				{"c":"Note ON", "n":59, "d":38, "f":246.941696, "v":74},
				{"c":"Note OFF", "n":59, "d":131, "f":246.941696, "v":0},
				{"c":"Note ON", "n":60, "d":41, "f":261.625610, "v":74},
				{"c":"Note OFF", "n":60, "d":135, "f":261.625610, "v":0},
				{"c":"Note ON", "n":59, "d":45, "f":246.941696, "v":74},
				{"c":"Note OFF", "n":59, "d":86, "f":246.941696, "v":0},
				{"c":"Note ON", "n":60, "d":4, "f":261.625610, "v":77},
				{"c":"Note OFF", "n":60, "d":480, "f":261.625610, "v":0},
				{"c":"Note ON", "n":60, "d":0, "f":261.625610, "v":75},
				{"c":"Note OFF", "n":43, "d":0, "f":97.998878, "v":0},
				{"c":"Note ON", "n":48, "d":0, "f":130.812805, "v":80},
				{"c":"Note OFF", "n":60, "d":2880, "f":261.625610, "v":0},
				{"c":"Note ON", "n":64, "d":0, "f":329.627625, "v":81},
				{"c":"Note OFF", "n":48, "d":0, "f":130.812805, "v":0},
				{"c":"Note ON", "n":48, "d":0, "f":130.812805, "v":77},
				{"c":"Note OFF", "n":64, "d":480, "f":329.627625, "v":0},
				{"c":"Note ON", "n":60, "d":0, "f":261.625610, "v":69},
				{"c":"Note OFF", "n":60, "d":480, "f":261.625610, "v":0},
				{"c":"Note ON", "n":67, "d":0, "f":391.995514, "v":89},
				{"c":"Note OFF", "n":48, "d":0, "f":130.812805, "v":0},
				{"c":"Note ON", "n":47, "d":0, "f":123.470848, "v":71},
				{"c":"Note OFF", "n":67, "d":960, "f":391.995514, "v":0},
				{"c":"Note ON", "n":62, "d":0, "f":293.664825, "v":70},
				{"c":"Note OFF", "n":47, "d":0, "f":123.470848, "v":0},
				{"c":"Note ON", "n":43, "d":0, "f":97.998878, "v":74},
				{"c":"Note OFF", "n":62, "d":480, "f":293.664825, "v":0},
				{"c":"Note ON", "n":65, "d":0, "f":349.228302, "v":84},
				{"c":"Note OFF", "n":65, "d":480, "f":349.228302, "v":0},
				{"c":"Note ON", "n":64, "d":0, "f":329.627625, "v":74},
				{"c":"Note OFF", "n":43, "d":0, "f":97.998878, "v":0},
				{"c":"Note ON", "n":48, "d":0, "f":130.812805, "v":82},
				{"c":"Note OFF", "n":64, "d":960, "f":329.627625, "v":0},
				{"c":"Note ON", "n":72, "d":0, "f":523.251221, "v":90},
				{"c":"Note OFF", "n":48, "d":0, "f":130.812805, "v":0},
				{"c":"Note ON", "n":52, "d":0, "f":164.813812, "v":81},
				{"c":"Note OFF", "n":72, "d":480, "f":523.251221, "v":0},
				{"c":"Note ON", "n":67, "d":0, "f":391.995514, "v":66},
				{"c":"Note OFF", "n":67, "d":480, "f":391.995514, "v":0},
				{"c":"Note ON", "n":69, "d":0, "f":440.000092, "v":84},
				{"c":"Note OFF", "n":52, "d":0, "f":164.813812, "v":0},
				{"c":"Note ON", "n":53, "d":0, "f":174.614151, "v":78},
				{"c":"Note OFF", "n":69, "d":960, "f":440.000092, "v":0},
				{"c":"Note ON", "n":64, "d":0, "f":329.627625, "v":72},
				{"c":"Note OFF", "n":53, "d":0, "f":174.614151, "v":0},
				{"c":"Note ON", "n":49, "d":0, "f":138.591339, "v":72},
				{"c":"Note OFF", "n":64, "d":480, "f":329.627625, "v":0},
				{"c":"Note ON", "n":67, "d":0, "f":391.995514, "v":77},
				{"c":"Note OFF", "n":67, "d":480, "f":391.995514, "v":0},
				{"c":"Note ON", "n":65, "d":0, "f":349.228302, "v":70},
				{"c":"Note OFF", "n":49, "d":0, "f":138.591339, "v":0},
				{"c":"Note ON", "n":50, "d":0, "f":146.832413, "v":77},
				{"c":"Note OFF", "n":65, "d":960, "f":349.228302, "v":0},
				{"c":"Note ON", "n":64, "d":0, "f":329.627625, "v":70},
				{"c":"Note OFF", "n":50, "d":0, "f":146.832413, "v":0},
				{"c":"Note ON", "n":55, "d":0, "f":195.997757, "v":81},
				{"c":"Note OFF", "n":64, "d":480, "f":329.627625, "v":0},
				{"c":"Note ON", "n":62, "d":0, "f":293.664825, "v":68},
				{"c":"Note OFF", "n":62, "d":480, "f":293.664825, "v":0},
				{"c":"Note ON", "n":61, "d":0, "f":277.182678, "v":70},
				{"c":"Note OFF", "n":55, "d":0, "f":195.997757, "v":0},
				{"c":"Note ON", "n":57, "d":0, "f":220.000046, "v":81},
				{"c":"Note OFF", "n":61, "d":960, "f":277.182678, "v":0},
				{"c":"Note ON", "n":62, "d":0, "f":293.664825, "v":78},
				{"c":"Note OFF", "n":57, "d":0, "f":220.000046, "v":0},
				{"c":"Note ON", "n":50, "d":0, "f":146.832413, "v":66},
				{"c":"Note OFF", "n":62, "d":480, "f":293.664825, "v":0},
				{"c":"Note ON", "n":64, "d":0, "f":329.627625, "v":85},
				{"c":"Note OFF", "n":64, "d":480, "f":329.627625, "v":0},
				{"c":"Note ON", "n":65, "d":0, "f":349.228302, "v":77},
				{"c":"Note OFF", "n":50, "d":0, "f":146.832413, "v":0},
				{"c":"Note ON", "n":57, "d":0, "f":220.000046, "v":79},
				{"c":"Note OFF", "n":65, "d":960, "f":349.228302, "v":0},
				{"c":"Note ON", "n":64, "d":0, "f":329.627625, "v":69},
				{"c":"Note OFF", "n":57, "d":0, "f":220.000046, "v":0},
				{"c":"Note ON", "n":45, "d":0, "f":110.000023, "v":66},
				{"c":"Note OFF", "n":64, "d":480, "f":329.627625, "v":0},
				{"c":"Note ON", "n":62, "d":0, "f":293.664825, "v":78},
				{"c":"Note OFF", "n":62, "d":480, "f":293.664825, "v":0},
				{"c":"Note ON", "n":62, "d":0, "f":293.664825, "v":76},
				{"c":"Note OFF", "n":45, "d":0, "f":110.000023, "v":0},
				{"c":"Note ON", "n":50, "d":0, "f":146.832413, "v":77},
				{"c":"Note OFF", "n":50, "d":480, "f":146.832413, "v":0},
				{"c":"Note ON", "n":52, "d":0, "f":164.813812, "v":83},
				{"c":"Note OFF", "n":52, "d":480, "f":164.813812, "v":0},
				{"c":"Note ON", "n":50, "d":0, "f":146.832413, "v":73},
				{"c":"Note OFF", "n":50, "d":480, "f":146.832413, "v":0},
				{"c":"Note ON", "n":48, "d":0, "f":130.812805, "v":74},
				{"c":"Note OFF", "n":48, "d":480, "f":130.812805, "v":0},
				{"c":"Note ON", "n":47, "d":0, "f":123.470848, "v":73},
				{"c":"Note OFF", "n":62, "d":960, "f":293.664825, "v":0},
				{"c":"Note ON", "n":67, "d":0, "f":391.995514, "v":90},
				{"c":"Note OFF", "n":47, "d":0, "f":123.470848, "v":0},
				{"c":"Note ON", "n":43, "d":0, "f":97.998878, "v":74},
				{"c":"Note OFF", "n":67, "d":480, "f":391.995514, "v":0},
				{"c":"Note ON", "n":62, "d":0, "f":293.664825, "v":70},
				{"c":"Note OFF", "n":62, "d":480, "f":293.664825, "v":0},
				{"c":"Note ON", "n":64, "d":0, "f":329.627625, "v":82},
				{"c":"Note OFF", "n":43, "d":0, "f":97.998878, "v":0},
				{"c":"Note ON", "n":48, "d":0, "f":130.812805, "v":79},
				{"c":"Note OFF", "n":64, "d":960, "f":329.627625, "v":0},
				{"c":"Note ON", "n":72, "d":0, "f":523.251221, "v":92},
				{"c":"Note OFF", "n":48, "d":0, "f":130.812805, "v":0},
				{"c":"Note ON", "n":52, "d":0, "f":164.813812, "v":85},
				{"c":"Note OFF", "n":72, "d":480, "f":523.251221, "v":0},
				{"c":"Note ON", "n":67, "d":0, "f":391.995514, "v":71},
				{"c":"Note OFF", "n":67, "d":480, "f":391.995514, "v":0},
				{"c":"Note ON", "n":69, "d":0, "f":440.000092, "v":80},
				{"c":"Note OFF", "n":52, "d":0, "f":164.813812, "v":0},
				{"c":"Note ON", "n":53, "d":0, "f":174.614151, "v":78},
				{"c":"Note OFF", "n":69, "d":960, "f":440.000092, "v":0},
				{"c":"Note ON", "n":64, "d":0, "f":329.627625, "v":61},
				{"c":"Note OFF", "n":53, "d":0, "f":174.614151, "v":0},
				{"c":"Note ON", "n":49, "d":0, "f":138.591339, "v":71},
				{"c":"Note OFF", "n":64, "d":480, "f":329.627625, "v":0},
				{"c":"Note ON", "n":67, "d":0, "f":391.995514, "v":84},
				{"c":"Note OFF", "n":67, "d":480, "f":391.995514, "v":0},
				{"c":"Note ON", "n":65, "d":0, "f":349.228302, "v":69},
				{"c":"Note OFF", "n":49, "d":0, "f":138.591339, "v":0},
				{"c":"Note ON", "n":50, "d":0, "f":146.832413, "v":78},
				{"c":"Note OFF", "n":65, "d":960, "f":349.228302, "v":0},
				{"c":"Note ON", "n":74, "d":0, "f":587.329651, "v":92},
				{"c":"Note OFF", "n":50, "d":0, "f":146.832413, "v":0},
				{"c":"Note ON", "n":53, "d":0, "f":174.614151, "v":82},
				{"c":"Note OFF", "n":74, "d":480, "f":587.329651, "v":0},
				{"c":"Note ON", "n":69, "d":0, "f":440.000092, "v":70},
				{"c":"Note OFF", "n":69, "d":480, "f":440.000092, "v":0},
				{"c":"Note ON", "n":71, "d":0, "f":493.883392, "v":76},
				{"c":"Note OFF", "n":53, "d":0, "f":174.614151, "v":0},
				{"c":"Note ON", "n":55, "d":0, "f":195.997757, "v":76},
				{"c":"Note OFF", "n":71, "d":960, "f":493.883392, "v":0},
				{"c":"Note ON", "n":66, "d":0, "f":369.994507, "v":64},
				{"c":"Note OFF", "n":55, "d":0, "f":195.997757, "v":0},
				{"c":"Note ON", "n":51, "d":0, "f":155.563522, "v":73},
				{"c":"Note OFF", "n":66, "d":480, "f":369.994507, "v":0},
				{"c":"Note ON", "n":71, "d":0, "f":493.883392, "v":81},
				{"c":"Note OFF", "n":71, "d":480, "f":493.883392, "v":0},
				{"c":"Note ON", "n":67, "d":0, "f":391.995514, "v":68},
				{"c":"Note OFF", "n":51, "d":0, "f":155.563522, "v":0},
				{"c":"Note ON", "n":52, "d":0, "f":164.813812, "v":76},
				{"c":"Note OFF", "n":67, "d":960, "f":391.995514, "v":0},
				{"c":"Note ON", "n":66, "d":0, "f":369.994507, "v":71},
				{"c":"Note OFF", "n":52, "d":0, "f":164.813812, "v":0},
				{"c":"Note ON", "n":57, "d":0, "f":220.000046, "v":81},
				{"c":"Note OFF", "n":66, "d":480, "f":369.994507, "v":0},
				{"c":"Note ON", "n":64, "d":0, "f":329.627625, "v":65},
				{"c":"Note OFF", "n":64, "d":480, "f":329.627625, "v":0},
				{"c":"Note ON", "n":63, "d":0, "f":311.127045, "v":74},
				{"c":"Note OFF", "n":57, "d":0, "f":220.000046, "v":0},
				{"c":"Note ON", "n":59, "d":0, "f":246.941696, "v":77},
				{"c":"Note OFF", "n":63, "d":150, "f":311.127045, "v":0},
				{"c":"Note ON", "n":64, "d":30, "f":329.627625, "v":74},
				{"c":"Note OFF", "n":64, "d":143, "f":329.627625, "v":0},
				{"c":"Note ON", "n":63, "d":30, "f":311.127045, "v":74},
				{"c":"Note OFF", "n":63, "d":135, "f":311.127045, "v":0},
				{"c":"Note ON", "n":64, "d":30, "f":329.627625, "v":74},
				{"c":"Note OFF", "n":64, "d":131, "f":329.627625, "v":0},
				{"c":"Note ON", "n":63, "d":26, "f":311.127045, "v":74},
				{"c":"Note OFF", "n":63, "d":124, "f":311.127045, "v":0},
				{"c":"Note ON", "n":64, "d":34, "f":329.627625, "v":74},
				{"c":"Note OFF", "n":64, "d":123, "f":329.627625, "v":0},
				{"c":"Note OFF", "n":59, "d":4, "f":246.941696, "v":0},
				{"c":"Note ON", "n":47, "d":0, "f":123.470848, "v":69},
				{"c":"Note ON", "n":63, "d":38, "f":311.127045, "v":74},
				{"c":"Note OFF", "n":63, "d":131, "f":311.127045, "v":0},
				{"c":"Note ON", "n":64, "d":41, "f":329.627625, "v":74},
				{"c":"Note OFF", "n":64, "d":135, "f":329.627625, "v":0},
				{"c":"Note ON", "n":63, "d":45, "f":311.127045, "v":74},
				{"c":"Note OFF", "n":63, "d":86, "f":311.127045, "v":0},
				{"c":"Note ON", "n":64, "d":4, "f":329.627625, "v":75},
				{"c":"Note OFF", "n":64, "d":480, "f":329.627625, "v":0},
				{"c":"Note ON", "n":64, "d":0, "f":329.627625, "v":76},
				{"c":"Note OFF", "n":47, "d":0, "f":123.470848, "v":0},
				{"c":"Note ON", "n":52, "d":0, "f":164.813812, "v":80},
				{"c":"Note OFF", "n":52, "d":480, "f":164.813812, "v":0},
				{"c":"Note ON", "n":51, "d":0, "f":155.563522, "v":72},
				{"c":"Note OFF", "n":51, "d":480, "f":155.563522, "v":0},
				{"c":"Note ON", "n":52, "d":0, "f":164.813812, "v":77},
				{"c":"Note OFF", "n":52, "d":480, "f":164.813812, "v":0},
				{"c":"Note ON", "n":54, "d":0, "f":184.997253, "v":78},
				{"c":"Note OFF", "n":54, "d":480, "f":184.997253, "v":0},
				{"c":"Note ON", "n":56, "d":0, "f":207.652390, "v":80},
				{"c":"Note OFF", "n":64, "d":960, "f":329.627625, "v":0},
				{"c":"Note ON", "n":76, "d":0, "f":659.255249, "v":96},
				{"c":"Note OFF", "n":56, "d":0, "f":207.652390, "v":0},
				{"c":"Note ON", "n":52, "d":0, "f":164.813812, "v":73},
				{"c":"Note OFF", "n":76, "d":480, "f":659.255249, "v":0},
				{"c":"Note ON", "n":71, "d":0, "f":493.883392, "v":70},
				{"c":"Note OFF", "n":71, "d":480, "f":493.883392, "v":0},
				{"c":"Note ON", "n":73, "d":0, "f":554.365356, "v":78},
				{"c":"Note OFF", "n":52, "d":0, "f":164.813812, "v":0},
				{"c":"Note ON", "n":57, "d":0, "f":220.000046, "v":82},
				{"c":"Note OFF", "n":73, "d":960, "f":554.365356, "v":0},
				{"c":"Note ON", "n":71, "d":0, "f":493.883392, "v":72},
				{"c":"Note OFF", "n":57, "d":0, "f":220.000046, "v":0},
				{"c":"Note ON", "n":55, "d":0, "f":195.997757, "v":73},
				{"c":"Note OFF", "n":71, "d":480, "f":493.883392, "v":0},
				{"c":"Note ON", "n":69, "d":0, "f":440.000092, "v":68},
				{"c":"Note OFF", "n":69, "d":480, "f":440.000092, "v":0},
				{"c":"Note ON", "n":74, "d":0, "f":587.329651, "v":85},
				{"c":"Note OFF", "n":55, "d":0, "f":195.997757, "v":0},
				{"c":"Note ON", "n":54, "d":0, "f":184.997253, "v":76},
				{"c":"Note OFF", "n":74, "d":960, "f":587.329651, "v":0},
				{"c":"Note ON", "n":69, "d":0, "f":440.000092, "v":71},
				{"c":"Note OFF", "n":54, "d":0, "f":184.997253, "v":0},
				{"c":"Note ON", "n":50, "d":0, "f":146.832413, "v":73},
				{"c":"Note OFF", "n":69, "d":480, "f":440.000092, "v":0},
				{"c":"Note ON", "n":72, "d":0, "f":523.251221, "v":86},
				{"c":"Note OFF", "n":72, "d":480, "f":523.251221, "v":0},
				{"c":"Note ON", "n":71, "d":0, "f":493.883392, "v":71},
				{"c":"Note OFF", "n":50, "d":0, "f":146.832413, "v":0},
				{"c":"Note ON", "n":55, "d":0, "f":195.997757, "v":77},
				{"c":"Note OFF", "n":71, "d":960, "f":493.883392, "v":0},
				{"c":"Note ON", "n":69, "d":0, "f":440.000092, "v":69},
				{"c":"Note OFF", "n":55, "d":0, "f":195.997757, "v":0},
				{"c":"Note ON", "n":53, "d":0, "f":174.614151, "v":78},
				{"c":"Note OFF", "n":69, "d":480, "f":440.000092, "v":0},
				{"c":"Note ON", "n":67, "d":0, "f":391.995514, "v":72},
				{"c":"Note OFF", "n":67, "d":480, "f":391.995514, "v":0},
				{"c":"Note ON", "n":72, "d":0, "f":523.251221, "v":88},
				{"c":"Note OFF", "n":53, "d":0, "f":174.614151, "v":0},
				{"c":"Note ON", "n":52, "d":0, "f":164.813812, "v":75},
				{"c":"Note OFF", "n":72, "d":960, "f":523.251221, "v":0},
				{"c":"Note ON", "n":67, "d":0, "f":391.995514, "v":67},
				{"c":"Note OFF", "n":52, "d":0, "f":164.813812, "v":0},
				{"c":"Note ON", "n":48, "d":0, "f":130.812805, "v":71},
				{"c":"Note OFF", "n":67, "d":480, "f":391.995514, "v":0},
				{"c":"Note ON", "n":70, "d":0, "f":466.163849, "v":82},
				{"c":"Note OFF", "n":70, "d":480, "f":466.163849, "v":0},
				{"c":"Note ON", "n":69, "d":0, "f":440.000092, "v":69},
				{"c":"Note OFF", "n":48, "d":0, "f":130.812805, "v":0},
				{"c":"Note ON", "n":53, "d":0, "f":174.614151, "v":82},
				{"c":"Note OFF", "n":69, "d":960, "f":440.000092, "v":0},
				{"c":"Note ON", "n":74, "d":0, "f":587.329651, "v":79},
				{"c":"Note OFF", "n":53, "d":0, "f":174.614151, "v":0},
				{"c":"Note ON", "n":52, "d":0, "f":164.813812, "v":75},
				{"c":"Note OFF", "n":74, "d":480, "f":587.329651, "v":0},
				{"c":"Note ON", "n":69, "d":0, "f":440.000092, "v":67},
				{"c":"Note OFF", "n":69, "d":480, "f":440.000092, "v":0},
				{"c":"Note ON", "n":72, "d":0, "f":523.251221, "v":83},
				{"c":"Note OFF", "n":52, "d":0, "f":164.813812, "v":0},
				{"c":"Note ON", "n":50, "d":0, "f":146.832413, "v":68},
				{"c":"Note OFF", "n":72, "d":960, "f":523.251221, "v":0},
				{"c":"Note ON", "n":66, "d":0, "f":369.994507, "v":61},
				{"c":"Note OFF", "n":50, "d":0, "f":146.832413, "v":0},
				{"c":"Note ON", "n":47, "d":0, "f":123.470848, "v":73},
				{"c":"Note OFF", "n":66, "d":480, "f":369.994507, "v":0},
				{"c":"Note ON", "n":69, "d":0, "f":440.000092, "v":77},
				{"c":"Note OFF", "n":69, "d":480, "f":440.000092, "v":0},
				{"c":"Note ON", "n":68, "d":0, "f":415.304779, "v":76},
				{"c":"Note OFF", "n":47, "d":0, "f":123.470848, "v":0},
				{"c":"Note ON", "n":52, "d":0, "f":164.813812, "v":81},
				{"c":"Note OFF", "n":68, "d":960, "f":415.304779, "v":0},
				{"c":"Note ON", "n":64, "d":0, "f":329.627625, "v":70},
				{"c":"Note OFF", "n":52, "d":480, "f":164.813812, "v":0},
				{"c":"Note ON", "n":53, "d":0, "f":174.614151, "v":76},
				{"c":"Note OFF", "n":53, "d":480, "f":174.614151, "v":0},
				{"c":"Note ON", "n":52, "d":0, "f":164.813812, "v":75},
				{"c":"Note OFF", "n":52, "d":480, "f":164.813812, "v":0},
				{"c":"Note ON", "n":50, "d":0, "f":146.832413, "v":73},
				{"c":"Note OFF", "n":64, "d":480, "f":329.627625, "v":0},
				{"c":"Note ON", "n":69, "d":0, "f":440.000092, "v":86},
				{"c":"Note OFF", "n":50, "d":0, "f":146.832413, "v":0},
				{"c":"Note ON", "n":49, "d":0, "f":138.591339, "v":75},
				{"c":"Note OFF", "n":69, "d":480, "f":440.000092, "v":0},
				{"c":"Note ON", "n":64, "d":0, "f":329.627625, "v":71},
				{"c":"Note OFF", "n":64, "d":480, "f":329.627625, "v":0},
				{"c":"Note ON", "n":65, "d":0, "f":349.228302, "v":78},
				{"c":"Note OFF", "n":49, "d":0, "f":138.591339, "v":0},
				{"c":"Note ON", "n":50, "d":0, "f":146.832413, "v":77},
				{"c":"Note OFF", "n":50, "d":480, "f":146.832413, "v":0},
				{"c":"Note ON", "n":57, "d":0, "f":220.000046, "v":82},
				{"c":"Note OFF", "n":65, "d":480, "f":349.228302, "v":0},
				{"c":"Note ON", "n":67, "d":0, "f":391.995514, "v":83},
				{"c":"Note OFF", "n":57, "d":0, "f":220.000046, "v":0},
				{"c":"Note ON", "n":59, "d":0, "f":246.941696, "v":81},
				{"c":"Note OFF", "n":67, "d":480, "f":391.995514, "v":0},
				{"c":"Note ON", "n":62, "d":0, "f":293.664825, "v":69},
				{"c":"Note OFF", "n":62, "d":480, "f":293.664825, "v":0},
				{"c":"Note ON", "n":64, "d":0, "f":329.627625, "v":83},
				{"c":"Note OFF", "n":59, "d":0, "f":246.941696, "v":0},
				{"c":"Note ON", "n":48, "d":0, "f":130.812805, "v":64},
				{"c":"Note OFF", "n":48, "d":480, "f":130.812805, "v":0},
				{"c":"Note ON", "n":56, "d":0, "f":207.652390, "v":77},
				{"c":"Note OFF", "n":64, "d":480, "f":329.627625, "v":0},
				{"c":"Note ON", "n":65, "d":0, "f":349.228302, "v":81},
				{"c":"Note OFF", "n":56, "d":0, "f":207.652390, "v":0},
				{"c":"Note ON", "n":57, "d":0, "f":220.000046, "v":73},
				{"c":"Note OFF", "n":65, "d":480, "f":349.228302, "v":0},
				{"c":"Note ON", "n":60, "d":0, "f":261.625610, "v":63},
				{"c":"Note OFF", "n":60, "d":480, "f":261.625610, "v":0},
				{"c":"Note ON", "n":62, "d":0, "f":293.664825, "v":78},
				{"c":"Note OFF", "n":57, "d":0, "f":220.000046, "v":0},
				{"c":"Note ON", "n":47, "d":0, "f":123.470848, "v":64},
				{"c":"Note OFF", "n":47, "d":480, "f":123.470848, "v":0},
				{"c":"Note ON", "n":54, "d":0, "f":184.997253, "v":76},
				{"c":"Note OFF", "n":62, "d":480, "f":293.664825, "v":0},
				{"c":"Note ON", "n":64, "d":0, "f":329.627625, "v":83},
				{"c":"Note OFF", "n":54, "d":0, "f":184.997253, "v":0},
				{"c":"Note ON", "n":56, "d":0, "f":207.652390, "v":81},
				{"c":"Note OFF", "n":64, "d":480, "f":329.627625, "v":0},
				{"c":"Note ON", "n":59, "d":0, "f":246.941696, "v":72},
				{"c":"Note OFF", "n":59, "d":480, "f":246.941696, "v":0},
				{"c":"Note ON", "n":60, "d":0, "f":261.625610, "v":78},
				{"c":"Note OFF", "n":56, "d":0, "f":207.652390, "v":0},
				{"c":"Note ON", "n":45, "d":0, "f":110.000023, "v":64},
				{"c":"Note OFF", "n":60, "d":960, "f":261.625610, "v":0},
				{"c":"Note ON", "n":59, "d":0, "f":246.941696, "v":75},
				{"c":"Note OFF", "n":45, "d":0, "f":110.000023, "v":0},
				{"c":"Note ON", "n":50, "d":0, "f":146.832413, "v":76},
				{"c":"Note OFF", "n":59, "d":480, "f":246.941696, "v":0},
				{"c":"Note ON", "n":57, "d":0, "f":220.000046, "v":77},
				{"c":"Note OFF", "n":57, "d":480, "f":220.000046, "v":0},
				{"c":"Note ON", "n":56, "d":0, "f":207.652390, "v":70},
				{"c":"Note OFF", "n":50, "d":0, "f":146.832413, "v":0},
				{"c":"Note ON", "n":52, "d":0, "f":164.813812, "v":81},
				{"c":"Note OFF", "n":56, "d":960, "f":207.652390, "v":0},
				{"c":"Note ON", "n":57, "d":0, "f":220.000046, "v":80},
				{"c":"Note OFF", "n":52, "d":0, "f":164.813812, "v":0},
				{"c":"Note ON", "n":50, "d":0, "f":146.832413, "v":70},
				{"c":"Note OFF", "n":57, "d":480, "f":220.000046, "v":0},
				{"c":"Note ON", "n":59, "d":0, "f":246.941696, "v":78},
				{"c":"Note OFF", "n":59, "d":480, "f":246.941696, "v":0},
				{"c":"Note ON", "n":60, "d":0, "f":261.625610, "v":81},
				{"c":"Note OFF", "n":50, "d":0, "f":146.832413, "v":0},
				{"c":"Note ON", "n":52, "d":0, "f":164.813812, "v":79},
				{"c":"Note OFF", "n":60, "d":960, "f":261.625610, "v":0},
				{"c":"Note ON", "n":59, "d":0, "f":246.941696, "v":75},
				{"c":"Note OFF", "n":59, "d":150, "f":246.941696, "v":0},
				{"c":"Note ON", "n":60, "d":26, "f":261.625610, "v":75},
				{"c":"Note OFF", "n":60, "d":139, "f":261.625610, "v":0},
				{"c":"Note ON", "n":59, "d":26, "f":246.941696, "v":75},
				{"c":"Note OFF", "n":59, "d":132, "f":246.941696, "v":0},
				{"c":"Note ON", "n":60, "d":22, "f":261.625610, "v":75},
				{"c":"Note OFF", "n":60, "d":120, "f":261.625610, "v":0},
				{"c":"Note ON", "n":59, "d":45, "f":246.941696, "v":75},
				{"c":"Note OFF", "n":59, "d":131, "f":246.941696, "v":0},
				{"c":"Note ON", "n":60, "d":45, "f":261.625610, "v":75},
				{"c":"Note OFF", "n":60, "d":120, "f":261.625610, "v":0},
				{"c":"Note ON", "n":57, "d":4, "f":220.000046, "v":71},
				{"c":"Note OFF", "n":52, "d":0, "f":164.813812, "v":0},
				{"c":"Note ON", "n":45, "d":0, "f":110.000023, "v":71},
				{"c":"Note OFF", "n":57, "d":2880, "f":220.000046, "v":0},
				{"c":"Note ON", "n":64, "d":0, "f":329.627625, "v":88},
				{"c":"Note OFF", "n":45, "d":0, "f":110.000023, "v":0},
				{"c":"Note ON", "n":48, "d":0, "f":130.812805, "v":76},
				{"c":"Note OFF", "n":64, "d":480, "f":329.627625, "v":0},
				{"c":"Note ON", "n":60, "d":0, "f":261.625610, "v":69},
				{"c":"Note OFF", "n":60, "d":480, "f":261.625610, "v":0},
				{"c":"Note ON", "n":67, "d":0, "f":391.995514, "v":89},
				{"c":"Note OFF", "n":48, "d":0, "f":130.812805, "v":0},
				{"c":"Note ON", "n":47, "d":0, "f":123.470848, "v":71},
				{"c":"Note OFF", "n":67, "d":960, "f":391.995514, "v":0},
				{"c":"Note ON", "n":62, "d":0, "f":293.664825, "v":75},
				{"c":"Note OFF", "n":47, "d":0, "f":123.470848, "v":0},
				{"c":"Note ON", "n":43, "d":0, "f":97.998878, "v":73},
				{"c":"Note OFF", "n":62, "d":480, "f":293.664825, "v":0},
				{"c":"Note ON", "n":65, "d":0, "f":349.228302, "v":80},
				{"c":"Note OFF", "n":65, "d":480, "f":349.228302, "v":0},
				{"c":"Note ON", "n":64, "d":0, "f":329.627625, "v":75},
				{"c":"Note OFF", "n":43, "d":0, "f":97.998878, "v":0},
				{"c":"Note ON", "n":48, "d":0, "f":130.812805, "v":82},
				{"c":"Note OFF", "n":64, "d":960, "f":329.627625, "v":0},
				{"c":"Note ON", "n":72, "d":0, "f":523.251221, "v":96},
				{"c":"Note OFF", "n":48, "d":0, "f":130.812805, "v":0},
				{"c":"Note ON", "n":52, "d":0, "f":164.813812, "v":83},
				{"c":"Note OFF", "n":72, "d":480, "f":523.251221, "v":0},
				{"c":"Note ON", "n":67, "d":0, "f":391.995514, "v":68},
				{"c":"Note OFF", "n":67, "d":480, "f":391.995514, "v":0},
				{"c":"Note ON", "n":69, "d":0, "f":440.000092, "v":80},
				{"c":"Note OFF", "n":52, "d":0, "f":164.813812, "v":0},
				{"c":"Note ON", "n":53, "d":0, "f":174.614151, "v":77},
				{"c":"Note OFF", "n":69, "d":960, "f":440.000092, "v":0},
				{"c":"Note ON", "n":64, "d":0, "f":329.627625, "v":66},
				{"c":"Note OFF", "n":53, "d":0, "f":174.614151, "v":0},
				{"c":"Note ON", "n":49, "d":0, "f":138.591339, "v":67},
				{"c":"Note OFF", "n":64, "d":480, "f":329.627625, "v":0},
				{"c":"Note ON", "n":67, "d":0, "f":391.995514, "v":84},
				{"c":"Note OFF", "n":67, "d":480, "f":391.995514, "v":0},
				{"c":"Note ON", "n":65, "d":0, "f":349.228302, "v":74},
				{"c":"Note OFF", "n":49, "d":0, "f":138.591339, "v":0},
				{"c":"Note ON", "n":50, "d":0, "f":146.832413, "v":79},
				{"c":"Note OFF", "n":65, "d":960, "f":349.228302, "v":0},
				{"c":"Note ON", "n":64, "d":0, "f":329.627625, "v":70},
				{"c":"Note OFF", "n":50, "d":0, "f":146.832413, "v":0},
				{"c":"Note ON", "n":55, "d":0, "f":195.997757, "v":75},
				{"c":"Note OFF", "n":64, "d":480, "f":329.627625, "v":0},
				{"c":"Note ON", "n":62, "d":0, "f":293.664825, "v":76},
				{"c":"Note OFF", "n":62, "d":480, "f":293.664825, "v":0},
				{"c":"Note ON", "n":61, "d":0, "f":277.182678, "v":73},
				{"c":"Note OFF", "n":55, "d":0, "f":195.997757, "v":0},
				{"c":"Note ON", "n":57, "d":0, "f":220.000046, "v":80},
				{"c":"Note OFF", "n":61, "d":960, "f":277.182678, "v":0},
				{"c":"Note ON", "n":62, "d":0, "f":293.664825, "v":82},
				{"c":"Note OFF", "n":57, "d":0, "f":220.000046, "v":0},
				{"c":"Note ON", "n":50, "d":0, "f":146.832413, "v":72},
				{"c":"Note OFF", "n":62, "d":480, "f":293.664825, "v":0},
				{"c":"Note ON", "n":64, "d":0, "f":329.627625, "v":83},
				{"c":"Note OFF", "n":64, "d":480, "f":329.627625, "v":0},
				{"c":"Note ON", "n":65, "d":0, "f":349.228302, "v":83},
				{"c":"Note OFF", "n":50, "d":0, "f":146.832413, "v":0},
				{"c":"Note ON", "n":57, "d":0, "f":220.000046, "v":82},
				{"c":"Note OFF", "n":65, "d":960, "f":349.228302, "v":0},
				{"c":"Note ON", "n":64, "d":0, "f":329.627625, "v":74},
				{"c":"Note OFF", "n":57, "d":0, "f":220.000046, "v":0},
				{"c":"Note ON", "n":45, "d":0, "f":110.000023, "v":65},
				{"c":"Note OFF", "n":64, "d":480, "f":329.627625, "v":0},
				{"c":"Note ON", "n":62, "d":0, "f":293.664825, "v":72},
				{"c":"Note OFF", "n":62, "d":480, "f":293.664825, "v":0},
				{"c":"Note ON", "n":62, "d":0, "f":293.664825, "v":75},
				{"c":"Note OFF", "n":45, "d":0, "f":110.000023, "v":0},
				{"c":"Note ON", "n":50, "d":0, "f":146.832413, "v":77},
				{"c":"Note OFF", "n":50, "d":480, "f":146.832413, "v":0},
				{"c":"Note ON", "n":52, "d":0, "f":164.813812, "v":78},
				{"c":"Note OFF", "n":52, "d":480, "f":164.813812, "v":0},
				{"c":"Note ON", "n":50, "d":0, "f":146.832413, "v":74},
				{"c":"Note OFF", "n":50, "d":480, "f":146.832413, "v":0},
				{"c":"Note ON", "n":48, "d":0, "f":130.812805, "v":81},
				{"c":"Note OFF", "n":48, "d":480, "f":130.812805, "v":0},
				{"c":"Note ON", "n":47, "d":0, "f":123.470848, "v":74},
				{"c":"Note OFF", "n":62, "d":960, "f":293.664825, "v":0},
				{"c":"Note ON", "n":67, "d":0, "f":391.995514, "v":89},
				{"c":"Note OFF", "n":47, "d":0, "f":123.470848, "v":0},
				{"c":"Note ON", "n":43, "d":0, "f":97.998878, "v":72},
				{"c":"Note OFF", "n":67, "d":480, "f":391.995514, "v":0},
				{"c":"Note ON", "n":62, "d":0, "f":293.664825, "v":70},
				{"c":"Note OFF", "n":62, "d":480, "f":293.664825, "v":0},
				{"c":"Note ON", "n":64, "d":0, "f":329.627625, "v":81},
				{"c":"Note OFF", "n":43, "d":0, "f":97.998878, "v":0},
				{"c":"Note ON", "n":48, "d":0, "f":130.812805, "v":81},
				{"c":"Note OFF", "n":64, "d":960, "f":329.627625, "v":0},
				{"c":"Note ON", "n":72, "d":0, "f":523.251221, "v":90},
				{"c":"Note OFF", "n":48, "d":0, "f":130.812805, "v":0},
				{"c":"Note ON", "n":52, "d":0, "f":164.813812, "v":85},
				{"c":"Note OFF", "n":72, "d":480, "f":523.251221, "v":0},
				{"c":"Note ON", "n":67, "d":0, "f":391.995514, "v":75},
				{"c":"Note OFF", "n":67, "d":480, "f":391.995514, "v":0},
				{"c":"Note ON", "n":69, "d":0, "f":440.000092, "v":77},
				{"c":"Note OFF", "n":52, "d":0, "f":164.813812, "v":0},
				{"c":"Note ON", "n":53, "d":0, "f":174.614151, "v":78},
				{"c":"Note OFF", "n":69, "d":960, "f":440.000092, "v":0},
				{"c":"Note ON", "n":64, "d":0, "f":329.627625, "v":67},
				{"c":"Note OFF", "n":53, "d":0, "f":174.614151, "v":0},
				{"c":"Note ON", "n":49, "d":0, "f":138.591339, "v":66},
				{"c":"Note OFF", "n":64, "d":480, "f":329.627625, "v":0},
				{"c":"Note ON", "n":67, "d":0, "f":391.995514, "v":85},
				{"c":"Note OFF", "n":67, "d":480, "f":391.995514, "v":0},
				{"c":"Note ON", "n":65, "d":0, "f":349.228302, "v":71},
				{"c":"Note OFF", "n":49, "d":0, "f":138.591339, "v":0},
				{"c":"Note ON", "n":50, "d":0, "f":146.832413, "v":77},
				{"c":"Note OFF", "n":65, "d":960, "f":349.228302, "v":0},
				{"c":"Note ON", "n":74, "d":0, "f":587.329651, "v":93},
				{"c":"Note OFF", "n":50, "d":0, "f":146.832413, "v":0},
				{"c":"Note ON", "n":53, "d":0, "f":174.614151, "v":85},
				{"c":"Note OFF", "n":74, "d":480, "f":587.329651, "v":0},
				{"c":"Note ON", "n":69, "d":0, "f":440.000092, "v":68},
				{"c":"Note OFF", "n":69, "d":480, "f":440.000092, "v":0},
				{"c":"Note ON", "n":71, "d":0, "f":493.883392, "v":76},
				{"c":"Note OFF", "n":53, "d":0, "f":174.614151, "v":0},
				{"c":"Note ON", "n":55, "d":0, "f":195.997757, "v":76},
				{"c":"Note OFF", "n":71, "d":960, "f":493.883392, "v":0},
				{"c":"Note ON", "n":66, "d":0, "f":369.994507, "v":63},
				{"c":"Note OFF", "n":55, "d":0, "f":195.997757, "v":0},
				{"c":"Note ON", "n":51, "d":0, "f":155.563522, "v":72},
				{"c":"Note OFF", "n":66, "d":480, "f":369.994507, "v":0},
				{"c":"Note ON", "n":71, "d":0, "f":493.883392, "v":83},
				{"c":"Note OFF", "n":71, "d":480, "f":493.883392, "v":0},
				{"c":"Note ON", "n":67, "d":0, "f":391.995514, "v":72},
				{"c":"Note OFF", "n":51, "d":0, "f":155.563522, "v":0},
				{"c":"Note ON", "n":52, "d":0, "f":164.813812, "v":76},
				{"c":"Note OFF", "n":67, "d":960, "f":391.995514, "v":0},
				{"c":"Note ON", "n":66, "d":0, "f":369.994507, "v":78},
				{"c":"Note OFF", "n":52, "d":0, "f":164.813812, "v":0},
				{"c":"Note ON", "n":57, "d":0, "f":220.000046, "v":80},
				{"c":"Note OFF", "n":66, "d":480, "f":369.994507, "v":0},
				{"c":"Note ON", "n":64, "d":0, "f":329.627625, "v":68},
				{"c":"Note OFF", "n":64, "d":480, "f":329.627625, "v":0},
				{"c":"Note ON", "n":63, "d":0, "f":311.127045, "v":70},
				{"c":"Note OFF", "n":57, "d":0, "f":220.000046, "v":0},
				{"c":"Note ON", "n":59, "d":0, "f":246.941696, "v":80},
				{"c":"Note OFF", "n":63, "d":150, "f":311.127045, "v":0},
				{"c":"Note ON", "n":64, "d":30, "f":329.627625, "v":70},
				{"c":"Note OFF", "n":64, "d":143, "f":329.627625, "v":0},
				{"c":"Note ON", "n":63, "d":30, "f":311.127045, "v":70},
				{"c":"Note OFF", "n":63, "d":135, "f":311.127045, "v":0},
				{"c":"Note ON", "n":64, "d":30, "f":329.627625, "v":70},
				{"c":"Note OFF", "n":64, "d":131, "f":329.627625, "v":0},
				{"c":"Note ON", "n":63, "d":26, "f":311.127045, "v":70},
				{"c":"Note OFF", "n":63, "d":124, "f":311.127045, "v":0},
				{"c":"Note ON", "n":64, "d":34, "f":329.627625, "v":70},
				{"c":"Note OFF", "n":64, "d":123, "f":329.627625, "v":0},
				{"c":"Note OFF", "n":59, "d":4, "f":246.941696, "v":0},
				{"c":"Note ON", "n":47, "d":0, "f":123.470848, "v":66},
				{"c":"Note ON", "n":63, "d":38, "f":311.127045, "v":70},
				{"c":"Note OFF", "n":63, "d":131, "f":311.127045, "v":0},
				{"c":"Note ON", "n":64, "d":41, "f":329.627625, "v":70},
				{"c":"Note OFF", "n":64, "d":135, "f":329.627625, "v":0},
				{"c":"Note ON", "n":63, "d":45, "f":311.127045, "v":70},
				{"c":"Note OFF", "n":63, "d":86, "f":311.127045, "v":0},
				{"c":"Note ON", "n":64, "d":4, "f":329.627625, "v":85},
				{"c":"Note OFF", "n":64, "d":480, "f":329.627625, "v":0},
				{"c":"Note ON", "n":64, "d":0, "f":329.627625, "v":80},
				{"c":"Note OFF", "n":47, "d":0, "f":123.470848, "v":0},
				{"c":"Note ON", "n":52, "d":0, "f":164.813812, "v":82},
				{"c":"Note OFF", "n":52, "d":480, "f":164.813812, "v":0},
				{"c":"Note ON", "n":51, "d":0, "f":155.563522, "v":74},
				{"c":"Note OFF", "n":51, "d":480, "f":155.563522, "v":0},
				{"c":"Note ON", "n":52, "d":0, "f":164.813812, "v":75},
				{"c":"Note OFF", "n":52, "d":480, "f":164.813812, "v":0},
				{"c":"Note ON", "n":54, "d":0, "f":184.997253, "v":82},
				{"c":"Note OFF", "n":54, "d":480, "f":184.997253, "v":0},
				{"c":"Note ON", "n":56, "d":0, "f":207.652390, "v":82},
				{"c":"Note OFF", "n":64, "d":960, "f":329.627625, "v":0},
				{"c":"Note ON", "n":76, "d":0, "f":659.255249, "v":98},
				{"c":"Note OFF", "n":56, "d":0, "f":207.652390, "v":0},
				{"c":"Note ON", "n":52, "d":0, "f":164.813812, "v":71},
				{"c":"Note OFF", "n":76, "d":480, "f":659.255249, "v":0},
				{"c":"Note ON", "n":71, "d":0, "f":493.883392, "v":68},
				{"c":"Note OFF", "n":71, "d":480, "f":493.883392, "v":0},
				{"c":"Note ON", "n":73, "d":0, "f":554.365356, "v":78},
				{"c":"Note OFF", "n":52, "d":0, "f":164.813812, "v":0},
				{"c":"Note ON", "n":57, "d":0, "f":220.000046, "v":81},
				{"c":"Note OFF", "n":73, "d":960, "f":554.365356, "v":0},
				{"c":"Note ON", "n":71, "d":0, "f":493.883392, "v":73},
				{"c":"Note OFF", "n":57, "d":0, "f":220.000046, "v":0},
				{"c":"Note ON", "n":55, "d":0, "f":195.997757, "v":72},
				{"c":"Note OFF", "n":71, "d":480, "f":493.883392, "v":0},
				{"c":"Note ON", "n":69, "d":0, "f":440.000092, "v":70},
				{"c":"Note OFF", "n":69, "d":480, "f":440.000092, "v":0},
				{"c":"Note ON", "n":74, "d":0, "f":587.329651, "v":83},
				{"c":"Note OFF", "n":55, "d":0, "f":195.997757, "v":0},
				{"c":"Note ON", "n":54, "d":0, "f":184.997253, "v":72},
				{"c":"Note OFF", "n":74, "d":960, "f":587.329651, "v":0},
				{"c":"Note ON", "n":69, "d":0, "f":440.000092, "v":63},
				{"c":"Note OFF", "n":54, "d":0, "f":184.997253, "v":0},
				{"c":"Note ON", "n":50, "d":0, "f":146.832413, "v":71},
				{"c":"Note OFF", "n":69, "d":480, "f":440.000092, "v":0},
				{"c":"Note ON", "n":72, "d":0, "f":523.251221, "v":75},
				{"c":"Note OFF", "n":72, "d":480, "f":523.251221, "v":0},
				{"c":"Note ON", "n":71, "d":0, "f":493.883392, "v":73},
				{"c":"Note OFF", "n":50, "d":0, "f":146.832413, "v":0},
				{"c":"Note ON", "n":55, "d":0, "f":195.997757, "v":82},
				{"c":"Note OFF", "n":71, "d":960, "f":493.883392, "v":0},
				{"c":"Note ON", "n":69, "d":0, "f":440.000092, "v":70},
				{"c":"Note OFF", "n":55, "d":0, "f":195.997757, "v":0},
				{"c":"Note ON", "n":53, "d":0, "f":174.614151, "v":74},
				{"c":"Note OFF", "n":69, "d":480, "f":440.000092, "v":0},
				{"c":"Note ON", "n":67, "d":0, "f":391.995514, "v":69},
				{"c":"Note OFF", "n":67, "d":480, "f":391.995514, "v":0},
				{"c":"Note ON", "n":72, "d":0, "f":523.251221, "v":84},
				{"c":"Note OFF", "n":53, "d":0, "f":174.614151, "v":0},
				{"c":"Note ON", "n":52, "d":0, "f":164.813812, "v":71},
				{"c":"Note OFF", "n":72, "d":960, "f":523.251221, "v":0},
				{"c":"Note ON", "n":67, "d":0, "f":391.995514, "v":64},
				{"c":"Note OFF", "n":52, "d":0, "f":164.813812, "v":0},
				{"c":"Note ON", "n":48, "d":0, "f":130.812805, "v":71},
				{"c":"Note OFF", "n":67, "d":480, "f":391.995514, "v":0},
				{"c":"Note ON", "n":70, "d":0, "f":466.163849, "v":83},
				{"c":"Note OFF", "n":70, "d":480, "f":466.163849, "v":0},
				{"c":"Note ON", "n":69, "d":0, "f":440.000092, "v":75},
				{"c":"Note OFF", "n":48, "d":0, "f":130.812805, "v":0},
				{"c":"Note ON", "n":53, "d":0, "f":174.614151, "v":78},
				{"c":"Note OFF", "n":69, "d":960, "f":440.000092, "v":0},
				{"c":"Note ON", "n":74, "d":0, "f":587.329651, "v":90},
				{"c":"Note OFF", "n":53, "d":0, "f":174.614151, "v":0},
				{"c":"Note ON", "n":52, "d":0, "f":164.813812, "v":74},
				{"c":"Note OFF", "n":74, "d":480, "f":587.329651, "v":0},
				{"c":"Note ON", "n":69, "d":0, "f":440.000092, "v":72},
				{"c":"Note OFF", "n":69, "d":480, "f":440.000092, "v":0},
				{"c":"Note ON", "n":72, "d":0, "f":523.251221, "v":80},
				{"c":"Note OFF", "n":52, "d":0, "f":164.813812, "v":0},
				{"c":"Note ON", "n":50, "d":0, "f":146.832413, "v":76},
				{"c":"Note OFF", "n":72, "d":960, "f":523.251221, "v":0},
				{"c":"Note ON", "n":66, "d":0, "f":369.994507, "v":63},
				{"c":"Note OFF", "n":50, "d":0, "f":146.832413, "v":0},
				{"c":"Note ON", "n":47, "d":0, "f":123.470848, "v":75},
				{"c":"Note OFF", "n":66, "d":480, "f":369.994507, "v":0},
				{"c":"Note ON", "n":69, "d":0, "f":440.000092, "v":80},
				{"c":"Note OFF", "n":69, "d":480, "f":440.000092, "v":0},
				{"c":"Note ON", "n":68, "d":0, "f":415.304779, "v":70},
				{"c":"Note OFF", "n":47, "d":0, "f":123.470848, "v":0},
				{"c":"Note ON", "n":52, "d":0, "f":164.813812, "v":76},
				{"c":"Note OFF", "n":68, "d":960, "f":415.304779, "v":0},
				{"c":"Note ON", "n":64, "d":0, "f":329.627625, "v":69},
				{"c":"Note OFF", "n":52, "d":480, "f":164.813812, "v":0},
				{"c":"Note ON", "n":53, "d":0, "f":174.614151, "v":75},
				{"c":"Note OFF", "n":53, "d":480, "f":174.614151, "v":0},
				{"c":"Note ON", "n":52, "d":0, "f":164.813812, "v":74},
				{"c":"Note OFF", "n":52, "d":480, "f":164.813812, "v":0},
				{"c":"Note ON", "n":50, "d":0, "f":146.832413, "v":73},
				{"c":"Note OFF", "n":64, "d":480, "f":329.627625, "v":0},
				{"c":"Note ON", "n":69, "d":0, "f":440.000092, "v":87},
				{"c":"Note OFF", "n":50, "d":0, "f":146.832413, "v":0},
				{"c":"Note ON", "n":49, "d":0, "f":138.591339, "v":73},
				{"c":"Note OFF", "n":69, "d":480, "f":440.000092, "v":0},
				{"c":"Note ON", "n":64, "d":0, "f":329.627625, "v":64},
				{"c":"Note OFF", "n":64, "d":480, "f":329.627625, "v":0},
				{"c":"Note ON", "n":65, "d":0, "f":349.228302, "v":83},
				{"c":"Note OFF", "n":49, "d":0, "f":138.591339, "v":0},
				{"c":"Note ON", "n":50, "d":0, "f":146.832413, "v":79},
				{"c":"Note OFF", "n":50, "d":480, "f":146.832413, "v":0},
				{"c":"Note ON", "n":57, "d":0, "f":220.000046, "v":86},
				{"c":"Note OFF", "n":65, "d":480, "f":349.228302, "v":0},
				{"c":"Note ON", "n":67, "d":0, "f":391.995514, "v":83},
				{"c":"Note OFF", "n":57, "d":0, "f":220.000046, "v":0},
				{"c":"Note ON", "n":59, "d":0, "f":246.941696, "v":78},
				{"c":"Note OFF", "n":67, "d":480, "f":391.995514, "v":0},
				{"c":"Note ON", "n":62, "d":0, "f":293.664825, "v":67},
				{"c":"Note OFF", "n":62, "d":480, "f":293.664825, "v":0},
				{"c":"Note ON", "n":64, "d":0, "f":329.627625, "v":78},
				{"c":"Note OFF", "n":59, "d":0, "f":246.941696, "v":0},
				{"c":"Note ON", "n":48, "d":0, "f":130.812805, "v":63},
				{"c":"Note OFF", "n":48, "d":480, "f":130.812805, "v":0},
				{"c":"Note ON", "n":56, "d":0, "f":207.652390, "v":81},
				{"c":"Note OFF", "n":64, "d":480, "f":329.627625, "v":0},
				{"c":"Note ON", "n":65, "d":0, "f":349.228302, "v":78},
				{"c":"Note OFF", "n":56, "d":0, "f":207.652390, "v":0},
				{"c":"Note ON", "n":57, "d":0, "f":220.000046, "v":79},
				{"c":"Note OFF", "n":65, "d":480, "f":349.228302, "v":0},
				{"c":"Note ON", "n":60, "d":0, "f":261.625610, "v":66},
				{"c":"Note OFF", "n":60, "d":480, "f":261.625610, "v":0},
				{"c":"Note ON", "n":62, "d":0, "f":293.664825, "v":84},
				{"c":"Note OFF", "n":57, "d":0, "f":220.000046, "v":0},
				{"c":"Note ON", "n":47, "d":0, "f":123.470848, "v":70},
				{"c":"Note OFF", "n":47, "d":480, "f":123.470848, "v":0},
				{"c":"Note ON", "n":54, "d":0, "f":184.997253, "v":89},
				{"c":"Note OFF", "n":62, "d":480, "f":293.664825, "v":0},
				{"c":"Note ON", "n":64, "d":0, "f":329.627625, "v":81},
				{"c":"Note OFF", "n":54, "d":0, "f":184.997253, "v":0},
				{"c":"Note ON", "n":56, "d":0, "f":207.652390, "v":80},
				{"c":"Note OFF", "n":64, "d":480, "f":329.627625, "v":0},
				{"c":"Note ON", "n":59, "d":0, "f":246.941696, "v":68},
				{"c":"Note OFF", "n":59, "d":480, "f":246.941696, "v":0},
				{"c":"Note ON", "n":60, "d":0, "f":261.625610, "v":78},
				{"c":"Note OFF", "n":56, "d":0, "f":207.652390, "v":0},
				{"c":"Note ON", "n":45, "d":0, "f":110.000023, "v":67},
				{"c":"Note OFF", "n":60, "d":960, "f":261.625610, "v":0},
				{"c":"Note ON", "n":59, "d":0, "f":246.941696, "v":75},
				{"c":"Note OFF", "n":45, "d":0, "f":110.000023, "v":0},
				{"c":"Note ON", "n":50, "d":0, "f":146.832413, "v":83},
				{"c":"Note OFF", "n":59, "d":480, "f":246.941696, "v":0},
				{"c":"Note ON", "n":57, "d":0, "f":220.000046, "v":74},
				{"c":"Note OFF", "n":57, "d":480, "f":220.000046, "v":0},
				{"c":"Note ON", "n":56, "d":0, "f":207.652390, "v":77},
				{"c":"Note OFF", "n":50, "d":0, "f":146.832413, "v":0},
				{"c":"Note ON", "n":52, "d":0, "f":164.813812, "v":85},
				{"c":"Note OFF", "n":56, "d":960, "f":207.652390, "v":0},
				{"c":"Note ON", "n":57, "d":0, "f":220.000046, "v":79},
				{"c":"Note OFF", "n":52, "d":0, "f":164.813812, "v":0},
				{"c":"Note ON", "n":50, "d":0, "f":146.832413, "v":74},
				{"c":"Note OFF", "n":57, "d":480, "f":220.000046, "v":0},
				{"c":"Note ON", "n":59, "d":0, "f":246.941696, "v":76},
				{"c":"Note OFF", "n":59, "d":480, "f":246.941696, "v":0},
				{"c":"Note ON", "n":60, "d":0, "f":261.625610, "v":83},
				{"c":"Note OFF", "n":50, "d":0, "f":146.832413, "v":0},
				{"c":"Note ON", "n":52, "d":0, "f":164.813812, "v":77},
				{"c":"Note OFF", "n":60, "d":960, "f":261.625610, "v":0},
				{"c":"Note ON", "n":59, "d":0, "f":246.941696, "v":74},
				{"c":"Note OFF", "n":59, "d":150, "f":246.941696, "v":0},
				{"c":"Note ON", "n":60, "d":26, "f":261.625610, "v":74},
				{"c":"Note OFF", "n":60, "d":139, "f":261.625610, "v":0},
				{"c":"Note ON", "n":59, "d":26, "f":246.941696, "v":74},
				{"c":"Note OFF", "n":59, "d":132, "f":246.941696, "v":0},
				{"c":"Note ON", "n":60, "d":22, "f":261.625610, "v":74},
				{"c":"Note OFF", "n":60, "d":120, "f":261.625610, "v":0},
				{"c":"Note ON", "n":59, "d":45, "f":246.941696, "v":74},
				{"c":"Note OFF", "n":59, "d":131, "f":246.941696, "v":0},
				{"c":"Note ON", "n":60, "d":45, "f":261.625610, "v":74},
				{"c":"Note OFF", "n":60, "d":120, "f":261.625610, "v":0},
				{"c":"Note ON", "n":57, "d":4, "f":220.000046, "v":73},
				{"c":"Note OFF", "n":52, "d":0, "f":164.813812, "v":0},
				{"c":"Note ON", "n":45, "d":0, "f":110.000023, "v":70},
				{"c":"Note OFF", "n":57, "d":2880, "f":220.000046, "v":0},
				{"c":"Note OFF", "n":45, "d":0, "f":110.000023, "v":0}
			]
		}
	]
}