{
	"loadmessage": "# loaded music.json",
	"description": "# music.json - converted notes generated from midi file: Look to your Orb.mid",
	"keys":"[c] command, [n] midi-note, [d] delta-time, [f] frequency, [v] velocity",
	"title":"main track", 
	"notes":[
		{"c":"Note ON", "n":41, "d":0, "f":87.307076, "v":80},
		{"c":"Note OFF", "n":41, "d":120, "f":87.307076, "v":64},
		{"c":"Note ON", "n":43, "d":0, "f":97.998878, "v":93},
		{"c":"Note OFF", "n":43, "d":120, "f":97.998878, "v":64},
		{"c":"Note ON", "n":45, "d":0, "f":110.000023, "v":103},
		{"c":"Note OFF", "n":45, "d":120, "f":110.000023, "v":64},
		{"c":"Note ON", "n":57, "d":240, "f":220.000046, "v":80},
		{"c":"Note OFF", "n":57, "d":120, "f":220.000046, "v":64},
		{"c":"Note ON", "n":56, "d":0, "f":207.652390, "v":92},
		{"c":"Note OFF", "n":56, "d":120, "f":207.652390, "v":64},
		{"c":"Note ON", "n":55, "d":0, "f":195.997757, "v":102},
		{"c":"Note OFF", "n":55, "d":120, "f":195.997757, "v":64},
		{"c":"Note ON", "n":41, "d":0, "f":87.307076, "v":80},
		{"c":"Note OFF", "n":41, "d":120, "f":87.307076, "v":64},
		{"c":"Note ON", "n":43, "d":0, "f":97.998878, "v":93},
		{"c":"Note OFF", "n":43, "d":120, "f":97.998878, "v":64},
		{"c":"Note ON", "n":45, "d":0, "f":110.000023, "v":103},
		{"c":"Note OFF", "n":45, "d":120, "f":110.000023, "v":64},
		{"c":"Note ON", "n":45, "d":240, "f":110.000023, "v":80},
		{"c":"Note OFF", "n":45, "d":120, "f":110.000023, "v":64},
		{"c":"Note ON", "n":43, "d":0, "f":97.998878, "v":92},
		{"c":"Note OFF", "n":43, "d":120, "f":97.998878, "v":64},
		{"c":"Note ON", "n":41, "d":0, "f":87.307076, "v":102},
		{"c":"Note OFF", "n":41, "d":120, "f":87.307076, "v":64},
		{"c":"Note ON", "n":41, "d":0, "f":87.307076, "v":80},
		{"c":"Note OFF", "n":41, "d":120, "f":87.307076, "v":64},
		{"c":"Note ON", "n":43, "d":0, "f":97.998878, "v":93},
		{"c":"Note OFF", "n":43, "d":120, "f":97.998878, "v":64},
		{"c":"Note ON", "n":45, "d":0, "f":110.000023, "v":103},
		{"c":"Note OFF", "n":45, "d":120, "f":110.000023, "v":64},
		{"c":"Note ON", "n":50, "d":0, "f":146.832413, "v":80},
		{"c":"Note OFF", "n":50, "d":120, "f":146.832413, "v":64},
		{"c":"Note ON", "n":57, "d":120, "f":220.000046, "v":80},
		{"c":"Note OFF", "n":57, "d":120, "f":220.000046, "v":64},
		{"c":"Note ON", "n":56, "d":0, "f":207.652390, "v":92},
		{"c":"Note OFF", "n":56, "d":120, "f":207.652390, "v":64},
		{"c":"Note ON", "n":55, "d":0, "f":195.997757, "v":102},
		{"c":"Note OFF", "n":55, "d":120, "f":195.997757, "v":64},
		{"c":"Note ON", "n":41, "d":0, "f":87.307076, "v":80},
		{"c":"Note OFF", "n":41, "d":120, "f":87.307076, "v":64},
		{"c":"Note ON", "n":43, "d":0, "f":97.998878, "v":93},
		{"c":"Note OFF", "n":43, "d":120, "f":97.998878, "v":64},
		{"c":"Note ON", "n":45, "d":0, "f":110.000023, "v":103},
		{"c":"Note OFF", "n":45, "d":120, "f":110.000023, "v":64},
		{"c":"Note ON", "n":50, "d":0, "f":146.832413, "v":80},
		{"c":"Note OFF", "n":50, "d":120, "f":146.832413, "v":64},
		{"c":"Note ON", "n":45, "d":120, "f":110.000023, "v":80},
		{"c":"Note OFF", "n":45, "d":120, "f":110.000023, "v":64},
		{"c":"Note ON", "n":43, "d":0, "f":97.998878, "v":92},
		{"c":"Note OFF", "n":43, "d":120, "f":97.998878, "v":64},
		{"c":"Note ON", "n":41, "d":0, "f":87.307076, "v":102},
		{"c":"Note OFF", "n":41, "d":120, "f":87.307076, "v":64},
		{"c":"Note ON", "n":41, "d":0, "f":87.307076, "v":80},
		{"c":"Note OFF", "n":41, "d":120, "f":87.307076, "v":64},
		{"c":"Note ON", "n":43, "d":0, "f":97.998878, "v":93},
		{"c":"Note OFF", "n":43, "d":120, "f":97.998878, "v":64},
		{"c":"Note ON", "n":45, "d":0, "f":110.000023, "v":103},
		{"c":"Note OFF", "n":45, "d":120, "f":110.000023, "v":64},
		{"c":"Note ON", "n":50, "d":0, "f":146.832413, "v":80},
		{"c":"Note OFF", "n":50, "d":120, "f":146.832413, "v":64},
		{"c":"Note ON", "n":50, "d":0, "f":146.832413, "v":69},
		{"c":"Note OFF", "n":50, "d":120, "f":146.832413, "v":64},
		{"c":"Note ON", "n":57, "d":0, "f":220.000046, "v":80},
		{"c":"Note OFF", "n":57, "d":120, "f":220.000046, "v":64},
		{"c":"Note ON", "n":56, "d":0, "f":207.652390, "v":92},
		{"c":"Note OFF", "n":56, "d":120, "f":207.652390, "v":64},
		{"c":"Note ON", "n":55, "d":0, "f":195.997757, "v":102},
		{"c":"Note OFF", "n":55, "d":120, "f":195.997757, "v":64},
		{"c":"Note ON", "n":65, "d":0, "f":349.228302, "v":80},
		{"c":"Note OFF", "n":65, "d":120, "f":349.228302, "v":64},
		{"c":"Note ON", "n":67, "d":0, "f":391.995514, "v":93},
		{"c":"Note OFF", "n":67, "d":120, "f":391.995514, "v":64},
		{"c":"Note ON", "n":69, "d":0, "f":440.000092, "v":103},
		{"c":"Note OFF", "n":69, "d":120, "f":440.000092, "v":64},
		{"c":"Note ON", "n":74, "d":0, "f":587.329651, "v":80},
		{"c":"Note OFF", "n":74, "d":120, "f":587.329651, "v":64},
		{"c":"Note ON", "n":74, "d":0, "f":587.329651, "v":69},
		{"c":"Note OFF", "n":74, "d":120, "f":587.329651, "v":64},
		{"c":"Note ON", "n":69, "d":0, "f":440.000092, "v":80},
		{"c":"Note OFF", "n":69, "d":120, "f":440.000092, "v":64},
		{"c":"Note ON", "n":67, "d":0, "f":391.995514, "v":92},
		{"c":"Note OFF", "n":67, "d":120, "f":391.995514, "v":64},
		{"c":"Note ON", "n":65, "d":0, "f":349.228302, "v":102},
		{"c":"Note OFF", "n":65, "d":120, "f":349.228302, "v":64},
		{"c":"Note ON", "n":86, "d":0, "f":1174.659302, "v":73},
		{"c":"Note OFF", "n":86, "d":120, "f":1174.659302, "v":64},
		{"c":"Note ON", "n":81, "d":0, "f":880.000183, "v":84},
		{"c":"Note OFF", "n":81, "d":120, "f":880.000183, "v":64},
		{"c":"Note ON", "n":79, "d":0, "f":783.991028, "v":95},
		{"c":"Note OFF", "n":79, "d":120, "f":783.991028, "v":64},
		{"c":"Note ON", "n":77, "d":0, "f":698.456604, "v":102},
		{"c":"Note OFF", "n":77, "d":120, "f":698.456604, "v":64},
		{"c":"Note ON", "n":74, "d":0, "f":587.329651, "v":73},
		{"c":"Note OFF", "n":74, "d":120, "f":587.329651, "v":64},
		{"c":"Note ON", "n":69, "d":0, "f":440.000092, "v":84},
		{"c":"Note OFF", "n":69, "d":120, "f":440.000092, "v":64},
		{"c":"Note ON", "n":67, "d":0, "f":391.995514, "v":95},
		{"c":"Note OFF", "n":67, "d":120, "f":391.995514, "v":64},
		{"c":"Note ON", "n":65, "d":0, "f":349.228302, "v":102},
		{"c":"Note OFF", "n":65, "d":120, "f":349.228302, "v":64},
		{"c":"Note ON", "n":62, "d":0, "f":293.664825, "v":73},
		{"c":"Note OFF", "n":62, "d":120, "f":293.664825, "v":64},
		{"c":"Note ON", "n":57, "d":0, "f":220.000046, "v":84},
		{"c":"Note OFF", "n":57, "d":120, "f":220.000046, "v":64},
		{"c":"Note ON", "n":55, "d":0, "f":195.997757, "v":95},
		{"c":"Note OFF", "n":55, "d":120, "f":195.997757, "v":64},
		{"c":"Note ON", "n":53, "d":0, "f":174.614151, "v":102},
		{"c":"Note OFF", "n":53, "d":120, "f":174.614151, "v":64},
		{"c":"Note ON", "n":50, "d":0, "f":146.832413, "v":73},
		{"c":"Note OFF", "n":50, "d":120, "f":146.832413, "v":64},
		{"c":"Note ON", "n":45, "d":0, "f":110.000023, "v":84},
		{"c":"Note OFF", "n":45, "d":120, "f":110.000023, "v":64},
		{"c":"Note ON", "n":43, "d":0, "f":97.998878, "v":95},
		{"c":"Note OFF", "n":43, "d":120, "f":97.998878, "v":64},
		{"c":"Note ON", "n":41, "d":0, "f":87.307076, "v":102},
		{"c":"Note OFF", "n":41, "d":120, "f":87.307076, "v":64},
		{"c":"Note ON", "n":41, "d":0, "f":87.307076, "v":80},
		{"c":"Note OFF", "n":41, "d":120, "f":87.307076, "v":64},
		{"c":"Note ON", "n":43, "d":0, "f":97.998878, "v":93},
		{"c":"Note OFF", "n":43, "d":120, "f":97.998878, "v":64},
		{"c":"Note ON", "n":45, "d":0, "f":110.000023, "v":103},
		{"c":"Note OFF", "n":45, "d":120, "f":110.000023, "v":64},
		{"c":"Note ON", "n":50, "d":0, "f":146.832413, "v":80},
		{"c":"Note OFF", "n":50, "d":120, "f":146.832413, "v":64},
		{"c":"Note ON", "n":50, "d":0, "f":146.832413, "v":69},
		{"c":"Note OFF", "n":50, "d":120, "f":146.832413, "v":64},
		{"c":"Note ON", "n":57, "d":0, "f":220.000046, "v":80},
		{"c":"Note OFF", "n":57, "d":120, "f":220.000046, "v":64},
		{"c":"Note ON", "n":56, "d":0, "f":207.652390, "v":92},
		{"c":"Note OFF", "n":56, "d":120, "f":207.652390, "v":64},
		{"c":"Note ON", "n":55, "d":0, "f":195.997757, "v":102},
		{"c":"Note OFF", "n":55, "d":120, "f":195.997757, "v":64},
		{"c":"Note ON", "n":41, "d":0, "f":87.307076, "v":80},
		{"c":"Note OFF", "n":41, "d":120, "f":87.307076, "v":64},
		{"c":"Note ON", "n":43, "d":0, "f":97.998878, "v":93},
		{"c":"Note OFF", "n":43, "d":120, "f":97.998878, "v":64},
		{"c":"Note ON", "n":45, "d":0, "f":110.000023, "v":103},
		{"c":"Note OFF", "n":45, "d":120, "f":110.000023, "v":64},
		{"c":"Note ON", "n":50, "d":0, "f":146.832413, "v":80},
		{"c":"Note OFF", "n":50, "d":120, "f":146.832413, "v":64},
		{"c":"Note ON", "n":50, "d":0, "f":146.832413, "v":69},
		{"c":"Note OFF", "n":50, "d":120, "f":146.832413, "v":64},
		{"c":"Note ON", "n":45, "d":0, "f":110.000023, "v":80},
		{"c":"Note OFF", "n":45, "d":120, "f":110.000023, "v":64},
		{"c":"Note ON", "n":43, "d":0, "f":97.998878, "v":92},
		{"c":"Note OFF", "n":43, "d":120, "f":97.998878, "v":64},
		{"c":"Note ON", "n":41, "d":0, "f":87.307076, "v":102},
		{"c":"Note OFF", "n":41, "d":120, "f":87.307076, "v":64},
		{"c":"Note ON", "n":41, "d":0, "f":87.307076, "v":80},
		{"c":"Note OFF", "n":41, "d":120, "f":87.307076, "v":64},
		{"c":"Note ON", "n":43, "d":0, "f":97.998878, "v":93},
		{"c":"Note OFF", "n":43, "d":120, "f":97.998878, "v":64},
		{"c":"Note ON", "n":45, "d":0, "f":110.000023, "v":103},
		{"c":"Note OFF", "n":45, "d":120, "f":110.000023, "v":64},
		{"c":"Note ON", "n":50, "d":0, "f":146.832413, "v":80},
		{"c":"Note OFF", "n":50, "d":120, "f":146.832413, "v":64},
		{"c":"Note ON", "n":50, "d":0, "f":146.832413, "v":69},
		{"c":"Note OFF", "n":50, "d":120, "f":146.832413, "v":64},
		{"c":"Note ON", "n":57, "d":0, "f":220.000046, "v":80},
		{"c":"Note OFF", "n":57, "d":120, "f":220.000046, "v":64},
		{"c":"Note ON", "n":56, "d":0, "f":207.652390, "v":92},
		{"c":"Note OFF", "n":56, "d":120, "f":207.652390, "v":64},
		{"c":"Note ON", "n":55, "d":0, "f":195.997757, "v":102},
		{"c":"Note OFF", "n":55, "d":120, "f":195.997757, "v":64},
		{"c":"Note ON", "n":41, "d":0, "f":87.307076, "v":80},
		{"c":"Note OFF", "n":41, "d":120, "f":87.307076, "v":64},
		{"c":"Note ON", "n":43, "d":0, "f":97.998878, "v":93},
		{"c":"Note OFF", "n":43, "d":120, "f":97.998878, "v":64},
		{"c":"Note ON", "n":45, "d":0, "f":110.000023, "v":103},
		{"c":"Note OFF", "n":45, "d":120, "f":110.000023, "v":64},
		{"c":"Note ON", "n":50, "d":0, "f":146.832413, "v":80},
		{"c":"Note OFF", "n":50, "d":120, "f":146.832413, "v":64},
		{"c":"Note ON", "n":50, "d":0, "f":146.832413, "v":69},
		{"c":"Note OFF", "n":50, "d":120, "f":146.832413, "v":64},
		{"c":"Note ON", "n":45, "d":0, "f":110.000023, "v":80},
		{"c":"Note OFF", "n":45, "d":120, "f":110.000023, "v":64},
		{"c":"Note ON", "n":43, "d":0, "f":97.998878, "v":92},
		{"c":"Note OFF", "n":43, "d":120, "f":97.998878, "v":64},
		{"c":"Note ON", "n":41, "d":0, "f":87.307076, "v":102},
		{"c":"Note OFF", "n":41, "d":120, "f":87.307076, "v":64},
		{"c":"Note ON", "n":41, "d":0, "f":87.307076, "v":80},
		{"c":"Note OFF", "n":41, "d":120, "f":87.307076, "v":64},
		{"c":"Note ON", "n":43, "d":0, "f":97.998878, "v":93},
		{"c":"Note OFF", "n":43, "d":120, "f":97.998878, "v":64},
		{"c":"Note ON", "n":45, "d":0, "f":110.000023, "v":103},
		{"c":"Note OFF", "n":45, "d":120, "f":110.000023, "v":64},
		{"c":"Note ON", "n":50, "d":0, "f":146.832413, "v":80},
		{"c":"Note OFF", "n":50, "d":120, "f":146.832413, "v":64},
		{"c":"Note ON", "n":50, "d":0, "f":146.832413, "v":69},
		{"c":"Note OFF", "n":50, "d":120, "f":146.832413, "v":64},
		{"c":"Note ON", "n":57, "d":0, "f":220.000046, "v":80},
		{"c":"Note OFF", "n":57, "d":120, "f":220.000046, "v":64},
		{"c":"Note ON", "n":56, "d":0, "f":207.652390, "v":92},
		{"c":"Note OFF", "n":56, "d":120, "f":207.652390, "v":64},
		{"c":"Note ON", "n":55, "d":0, "f":195.997757, "v":102},
		{"c":"Note OFF", "n":55, "d":120, "f":195.997757, "v":64},
		{"c":"Note ON", "n":65, "d":0, "f":349.228302, "v":80},
		{"c":"Note OFF", "n":65, "d":120, "f":349.228302, "v":64},
		{"c":"Note ON", "n":67, "d":0, "f":391.995514, "v":93},
		{"c":"Note OFF", "n":67, "d":120, "f":391.995514, "v":64},
		{"c":"Note ON", "n":69, "d":0, "f":440.000092, "v":103},
		{"c":"Note OFF", "n":69, "d":120, "f":440.000092, "v":64},
		{"c":"Note ON", "n":74, "d":0, "f":587.329651, "v":80},
		{"c":"Note OFF", "n":74, "d":120, "f":587.329651, "v":64},
		{"c":"Note ON", "n":74, "d":0, "f":587.329651, "v":69},
		{"c":"Note OFF", "n":74, "d":120, "f":587.329651, "v":64},
		{"c":"Note ON", "n":69, "d":0, "f":440.000092, "v":80},
		{"c":"Note OFF", "n":69, "d":120, "f":440.000092, "v":64},
		{"c":"Note ON", "n":67, "d":0, "f":391.995514, "v":92},
		{"c":"Note OFF", "n":67, "d":120, "f":391.995514, "v":64},
		{"c":"Note ON", "n":65, "d":0, "f":349.228302, "v":102},
		{"c":"Note OFF", "n":65, "d":120, "f":349.228302, "v":64},
		{"c":"Note ON", "n":86, "d":0, "f":1174.659302, "v":73},
		{"c":"Note OFF", "n":86, "d":120, "f":1174.659302, "v":64},
		{"c":"Note ON", "n":81, "d":0, "f":880.000183, "v":84},
		{"c":"Note OFF", "n":81, "d":120, "f":880.000183, "v":64},
		{"c":"Note ON", "n":86, "d":0, "f":1174.659302, "v":95},
		{"c":"Note OFF", "n":86, "d":120, "f":1174.659302, "v":64},
		{"c":"Note ON", "n":77, "d":0, "f":698.456604, "v":102},
		{"c":"Note OFF", "n":77, "d":120, "f":698.456604, "v":64},
		{"c":"Note ON", "n":74, "d":0, "f":587.329651, "v":73},
		{"c":"Note OFF", "n":74, "d":120, "f":587.329651, "v":64},
		{"c":"Note ON", "n":77, "d":0, "f":698.456604, "v":84},
		{"c":"Note OFF", "n":77, "d":120, "f":698.456604, "v":64},
		{"c":"Note ON", "n":79, "d":0, "f":783.991028, "v":95},
		{"c":"Note OFF", "n":79, "d":120, "f":783.991028, "v":64},
		{"c":"Note ON", "n":81, "d":0, "f":880.000183, "v":102},
		{"c":"Note OFF", "n":81, "d":120, "f":880.000183, "v":64},
		{"c":"Note ON", "n":74, "d":0, "f":587.329651, "v":73},
		{"c":"Note OFF", "n":74, "d":120, "f":587.329651, "v":64},
		{"c":"Note ON", "n":69, "d":0, "f":440.000092, "v":84},
		{"c":"Note OFF", "n":69, "d":120, "f":440.000092, "v":64},
		{"c":"Note ON", "n":62, "d":0, "f":293.664825, "v":95},
		{"c":"Note OFF", "n":62, "d":120, "f":293.664825, "v":64},
		{"c":"Note ON", "n":57, "d":0, "f":220.000046, "v":102},
		{"c":"Note OFF", "n":57, "d":120, "f":220.000046, "v":64},
		{"c":"Note ON", "n":55, "d":0, "f":195.997757, "v":73},
		{"c":"Note OFF", "n":55, "d":120, "f":195.997757, "v":64},
		{"c":"Note ON", "n":57, "d":0, "f":220.000046, "v":84},
		{"c":"Note OFF", "n":57, "d":120, "f":220.000046, "v":64},
		{"c":"Note ON", "n":62, "d":0, "f":293.664825, "v":95},
		{"c":"Note OFF", "n":62, "d":120, "f":293.664825, "v":64},
		{"c":"Note ON", "n":57, "d":0, "f":220.000046, "v":102},
		{"c":"Note OFF", "n":57, "d":120, "f":220.000046, "v":64}
	]
}